<svg id="Layer_1" data-name="Layer 1" xmlns="http://www.w3.org/2000/svg" viewBox="0 0 64 64"><defs><style>.cls-1{fill:#0067f5;}</style></defs><path class="cls-1" d="M32,63.37a9.47,9.47,0,1,1,9.46-9.47A9.47,9.47,0,0,1,32,63.37Zm0-14.22a4.75,4.75,0,1,0,4.75,4.75A4.75,4.75,0,0,0,32,49.15Z"/><polygon class="cls-1" points="57.19 44.27 12.26 44.27 32 10.07 32.02 10.11 34.75 5.39 32 0.64 4.09 48.98 59.91 48.98 57.19 44.27"/><polygon class="cls-1" points="52.65 36.41 27.8 36.41 30.51 31.7 44.49 31.7 42.65 28.52 37.49 19.57 34.76 14.85 34.75 14.82 37.47 10.11 48.1 28.52 50.82 33.23 52.65 36.41"/><polygon class="cls-1" points="30.51 31.7 27.8 36.41 27.12 36.41 27.12 31.7 30.51 31.7"/><polygon class="cls-1" points="37.49 19.57 30.51 31.7 27.8 36.41 23.12 44.71 17.68 44.71 34.76 14.85 37.49 19.57"/></svg>