<svg width="1088" height="688" viewBox="0 0 1088 688" fill="none" xmlns="http://www.w3.org/2000/svg">
  <g clip-path="url(#clip0_2_195)">
    <path
      d="M961.81 454.442C956.54 499.592 945.59 535.842 930.56 564.752C910.56 603.272 876.35 618.792 845.79 635.032C836.959 639.716 827.778 643.708 818.33 646.972C762.72 666.272 700.48 661.152 651.59 650.962C617.299 643.809 582.492 639.408 547.5 637.802C537.52 637.352 527.53 637.129 517.53 637.132C502.11 637.152 224.46 642.422 156.86 505.562C140.17 471.802 128.73 430.562 124.62 380.292C112.99 238.172 176.91 144.832 259.36 83.822C415.33 -31.588 629.12 -26.748 782.79 91.702C885.15 170.602 980.99 290.012 961.81 454.442Z"
      fill="#3F3D56" />
    <path
      d="M930.56 564.752C910.56 603.272 883.35 628.792 852.79 645.032C843.959 649.716 834.778 653.708 825.33 656.972C769.72 676.272 707.48 671.152 658.59 660.962C624.299 653.809 589.492 649.408 554.5 647.802C544.52 647.352 534.53 647.129 524.53 647.132C509.11 647.152 493.693 647.725 478.28 648.852C378.11 656.212 224.46 642.422 156.86 505.562L326 177.962L388.95 339.581L409.04 391.171L464.41 315.191L493 275.962L623.2 425.232L660 343.962L914.78 551.881L928.99 563.471L930.56 564.752Z"
      fill="#F2F2F2" />
    <path opacity="0.1" d="M302 282.962L328 225.962L364 308.962L333 248.962L302 282.962Z"
      fill="black" />
    <path opacity="0.1"
      d="M554.5 647.802C544.52 647.352 534.53 647.129 524.53 647.132L409.04 391.172L554.5 647.802Z"
      fill="black" />
    <path opacity="0.1" d="M464.411 315.191L493 292.962L623 442.962L491 314.962L464.411 315.191Z"
      fill="black" />
    <path opacity="0.1"
      d="M852.79 645.032C843.959 649.716 834.778 653.708 825.33 656.972L623.2 425.232L852.79 645.032Z"
      fill="black" />
    <path
      d="M482 104.962C483.657 104.962 485 103.619 485 101.962C485 100.305 483.657 98.962 482 98.962C480.343 98.962 479 100.305 479 101.962C479 103.619 480.343 104.962 482 104.962Z"
      fill="#F2F2F2" />
    <path
      d="M399 207.962C400.657 207.962 402 206.619 402 204.962C402 203.305 400.657 201.962 399 201.962C397.343 201.962 396 203.305 396 204.962C396 206.619 397.343 207.962 399 207.962Z"
      fill="#F2F2F2" />
    <path
      d="M602 224.962C603.105 224.962 604 224.067 604 222.962C604 221.857 603.105 220.962 602 220.962C600.895 220.962 600 221.857 600 222.962C600 224.067 600.895 224.962 602 224.962Z"
      fill="#F2F2F2" />
    <path
      d="M182 269.962C183.105 269.962 184 269.067 184 267.962C184 266.857 183.105 265.962 182 265.962C180.895 265.962 180 266.857 180 267.962C180 269.067 180.895 269.962 182 269.962Z"
      fill="#F2F2F2" />
    <path
      d="M614 100.962C615.105 100.962 616 100.067 616 98.962C616 97.8574 615.105 96.962 614 96.962C612.895 96.962 612 97.8574 612 98.962C612 100.067 612.895 100.962 614 100.962Z"
      fill="#F2F2F2" />
    <path
      d="M738 196.962C739.105 196.962 740 196.067 740 194.962C740 193.857 739.105 192.962 738 192.962C736.895 192.962 736 193.857 736 194.962C736 196.067 736.895 196.962 738 196.962Z"
      fill="#F2F2F2" />
    <path
      d="M860 348.962C861.105 348.962 862 348.067 862 346.962C862 345.857 861.105 344.962 860 344.962C858.895 344.962 858 345.857 858 346.962C858 348.067 858.895 348.962 860 348.962Z"
      fill="#F2F2F2" />
    <path
      d="M306 121.222H303.24V118.462H301.76V121.222H299V122.7H301.76V125.459H303.24V122.7H306V121.222Z"
      fill="#F2F2F2" />
    <path
      d="M848 424.222H845.24V421.462H843.76V424.222H841V425.7H843.76V428.459H845.24V425.7H848V424.222Z"
      fill="#F2F2F2" />
    <path
      d="M1088 613.962C1088 630.531 844.443 687.962 544 687.962C243.557 687.962 0 630.531 0 613.962C0 597.393 243.557 627.962 544 627.962C844.443 627.962 1088 597.394 1088 613.962Z"
      fill="#3F3D56" />
    <path opacity="0.1"
      d="M1088 613.962C1088 630.531 844.443 687.962 544 687.962C243.557 687.962 0 630.531 0 613.962C0 597.393 243.557 627.962 544 627.962C844.443 627.962 1088 597.394 1088 613.962Z"
      fill="black" />
    <path
      d="M544 643.962C844.443 643.962 1088 630.531 1088 613.962C1088 597.393 844.443 583.962 544 583.962C243.557 583.962 0 597.393 0 613.962C0 630.531 243.557 643.962 544 643.962Z"
      fill="#3F3D56" />
    <path d="M137 490.528C137 545.871 171.719 590.654 214.626 590.654Z" fill="#3F3D56" />
    <path d="M214.626 590.654C214.626 534.689 253.371 489.403 301.252 489.403Z" fill="#6C63FF" />
    <path d="M165.125 495.545C165.125 548.115 187.265 590.654 214.625 590.654Z" fill="#6C63FF" />
    <path d="M214.626 590.654C214.626 519.143 259.409 461.277 314.752 461.277Z" fill="#3F3D56" />
    <path
      d="M198.3 591.36C198.3 591.36 209.309 591.021 212.626 588.66C215.943 586.299 229.56 583.477 230.383 587.265C231.206 591.053 246.927 606.109 234.498 606.21C222.069 606.311 205.619 604.274 202.308 602.257C198.997 600.24 198.3 591.36 198.3 591.36Z"
      fill="#A8A8A8" />
    <path opacity="0.2"
      d="M234.716 604.89C222.287 604.99 205.837 602.954 202.526 600.937C200.004 599.401 198.999 593.889 198.663 591.346L198.295 591.36C198.295 591.36 198.995 600.239 202.304 602.26C205.613 604.281 222.065 606.313 234.494 606.213C238.082 606.184 239.321 604.908 239.253 603.013C238.755 604.155 237.386 604.868 234.716 604.89Z"
      fill="black" />
    <path d="M721.429 527.062C721.429 565.091 745.286 595.862 774.77 595.862Z" fill="#3F3D56" />
    <path d="M774.769 595.863C774.769 557.407 801.392 526.288 834.294 526.288Z" fill="#6C63FF" />
    <path d="M740.755 530.509C740.755 566.633 755.968 595.863 774.769 595.863Z" fill="#6C63FF" />
    <path d="M774.769 595.863C774.769 546.724 805.542 506.963 843.569 506.963Z" fill="#3F3D56" />
    <path
      d="M763.548 596.348C763.548 596.348 771.113 596.115 773.392 594.492C775.671 592.869 785.028 590.93 785.592 593.534C786.156 596.138 796.96 606.483 788.42 606.552C779.88 606.621 768.576 605.222 766.301 603.836C764.026 602.45 763.548 596.348 763.548 596.348Z"
      fill="#A8A8A8" />
    <path opacity="0.2"
      d="M788.574 605.645C780.034 605.714 768.73 604.315 766.455 602.929C764.722 601.873 764.032 598.086 763.801 596.339L763.548 596.349C763.548 596.349 764.027 602.449 766.303 603.836C768.579 605.223 779.882 606.621 788.422 606.552C790.887 606.532 791.739 605.652 791.692 604.352C791.349 605.14 790.409 605.63 788.574 605.645Z"
      fill="black" />
    <path
      d="M893.813 618.699C893.813 618.699 905.173 616.97 908.313 614.108C911.453 611.246 925.203 606.62 926.53 610.441C927.857 614.262 946.024 627.888 933.163 629.548C920.302 631.208 903.01 631.157 899.328 629.483C895.646 627.809 893.813 618.699 893.813 618.699Z"
      fill="#A8A8A8" />
    <path opacity="0.2"
      d="M933.228 628.154C920.368 629.813 903.075 629.763 899.393 628.089C896.593 626.814 894.858 621.231 894.193 618.639L893.814 618.7C893.814 618.7 895.647 627.809 899.33 629.483C903.013 631.157 920.305 631.208 933.165 629.548C936.877 629.069 938.001 627.592 937.694 625.642C937.319 626.888 935.991 627.798 933.228 628.154Z"
      fill="black" />
    <path
      d="M614.26 617.881C614.26 617.881 623.847 616.422 626.497 614.006C629.147 611.59 640.752 607.686 641.871 610.911C642.99 614.136 658.323 625.636 647.471 627.036C636.619 628.436 622.023 628.394 618.916 626.981C615.809 625.568 614.26 617.881 614.26 617.881Z"
      fill="#A8A8A8" />
    <path opacity="0.2"
      d="M647.524 625.856C636.671 627.256 622.076 627.214 618.969 625.801C616.602 624.725 615.142 620.013 614.579 617.825L614.259 617.876C614.259 617.876 615.806 625.563 618.914 626.976C622.022 628.389 636.614 628.432 647.469 627.031C650.602 626.631 651.55 625.38 651.291 623.731C650.977 624.788 649.856 625.556 647.524 625.856Z"
      fill="black" />
    <path
      d="M122.389 613.09C122.389 613.09 129.852 611.954 131.916 610.074C133.98 608.194 143.016 605.154 143.885 607.665C144.754 610.176 156.693 619.128 148.243 620.218C139.793 621.308 128.432 621.275 126.013 620.175C123.594 619.075 122.389 613.09 122.389 613.09Z"
      fill="#A8A8A8" />
    <path opacity="0.2"
      d="M148.285 619.302C139.836 620.392 128.474 620.359 126.055 619.259C124.213 618.421 123.076 614.753 122.638 613.05L122.389 613.09C122.389 613.09 123.589 619.074 126.013 620.175C128.437 621.276 139.794 621.308 148.243 620.218C150.682 619.903 151.42 618.933 151.219 617.652C150.973 618.47 150.1 619.068 148.285 619.302Z"
      fill="black" />
    <path opacity="0.1"
      d="M383.7 601.318C383.7 631.538 341.576 622.191 290 622.191C238.424 622.191 196.926 631.538 196.926 601.318C196.926 571.098 239.044 564.525 290.62 564.525C342.196 564.525 383.7 571.098 383.7 601.318Z"
      fill="black" />
    <rect x="862.247" y="399" width="113" height="113" rx="56.5" transform="rotate(15 862.247 399)"
      fill="white" />
    <g clip-path="url(#clip1_2_195)">
      <path
        d="M891.238 510.538C888.736 509.871 886.488 508.476 884.779 506.531C883.069 504.585 881.976 502.177 881.636 499.61C881.295 497.042 881.725 494.432 882.868 492.109C884.012 489.785 885.819 487.853 888.061 486.557C890.303 485.261 892.879 484.66 895.464 484.828C898.048 484.996 900.524 485.927 902.579 487.503C904.634 489.079 906.175 491.229 907.008 493.681C907.84 496.133 907.927 498.777 907.257 501.279C906.359 504.63 904.167 507.487 901.164 509.224C898.16 510.96 894.59 511.433 891.238 510.538ZM896.325 491.552C895.071 491.216 893.745 491.259 892.515 491.677C891.286 492.094 890.207 492.867 889.417 493.897C888.626 494.927 888.159 496.169 888.074 497.465C887.989 498.761 888.29 500.052 888.94 501.177C889.589 502.302 890.557 503.209 891.722 503.783C892.887 504.357 894.195 504.573 895.483 504.404C896.77 504.234 897.979 503.687 898.955 502.831C899.931 501.974 900.632 500.848 900.968 499.594C901.419 497.912 901.183 496.119 900.312 494.611C899.441 493.103 898.007 492.003 896.325 491.552Z"
        fill="#0067F5" />
      <path
        d="M931.705 494.048L871.714 477.974L910.307 439.372L910.319 439.433L915.653 434.108L913.68 426.782L859.121 481.34L933.651 501.31L931.705 494.048Z"
        fill="#0067F5" />
      <path
        d="M928.455 481.929L895.275 473.039L900.579 467.72L919.245 472.721L917.926 467.817L914.238 454.021L912.282 446.742L912.279 446.698L917.596 441.383L925.203 469.767L927.149 477.029L928.455 481.929Z"
        fill="#0067F5" />
      <path d="M900.579 467.72L895.275 473.039L894.367 472.796L896.053 466.507L900.579 467.72Z"
        fill="#0067F5" />
      <path
        d="M914.238 454.021L900.579 467.72L895.275 473.039L886.057 482.447L878.794 480.5L912.282 446.742L914.238 454.021Z"
        fill="#0067F5" />
    </g>
    <g clip-path="url(#clip2_2_195)">
      <path fill-rule="evenodd" clip-rule="evenodd"
        d="M497.208 317.019L498.014 317.221C499.155 317.591 500.262 317.826 501.236 317.893C502.31 317.96 503.35 317.893 504.29 317.692C507.042 317.154 511.103 314.599 515.499 311.843C520.399 308.785 525.669 305.525 531.273 303.643C535.032 302.365 548.188 301.492 560.673 301.256C574.903 300.954 589.033 302.164 590.476 305.021C591.584 307.239 592.288 310.062 592.053 313.221C591.852 315.742 591.08 318.465 589.436 321.221C585.71 327.506 578.964 332.177 572.588 336.547C566.11 340.983 560.17 345.084 561.177 348.142C561.244 348.411 561.882 348.949 562.855 349.722C564.264 350.831 566.312 352.142 568.426 353.453C577.018 358.696 583.697 364.241 589.368 370.795C594.973 377.282 599.638 384.676 604.203 393.785C605.545 396.44 606.821 399.162 608.029 401.952C609.338 404.943 610.579 408.002 611.754 411.06L612.023 412.035C612.727 416.236 613.667 419.429 614.909 421.379C615.513 422.353 616.084 422.824 616.621 422.824L616.788 422.79H623.501C624.575 422.79 625.447 422.723 626.219 422.689C632.596 422.252 636.187 422.017 639.912 431.596C642.497 438.251 643.369 447.494 642.966 456.736C642.564 466.685 640.718 476.801 638.1 483.725C637.127 488.296 635.079 491.926 631.858 494.615C628.636 497.27 624.44 498.85 619.171 499.287L618.769 499.32H611.318C608.062 499.32 605.21 499.186 603.129 499.118C601.115 499.051 600.712 498.782 600.444 498.883C600.075 499.085 600.545 499.119 600.008 499.824C598.665 501.673 596.517 504.631 592.02 509.269C588.798 512.596 585.073 516.26 581.482 519.654C578.159 522.78 574.836 525.771 572.118 528.057L570.44 529.468C567.352 532.023 565.842 533.266 565.775 533.67C565.64 534.409 566.58 536.627 568.392 541.03C569.164 542.879 569.634 543.988 569.802 544.425C571.614 548.895 573.427 553.231 575.105 557.029C577.89 563.448 580.945 570.237 581.918 572.456L582.018 572.691C584.267 578.438 583.764 582.807 580.609 585.933C577.924 588.588 573.695 589.597 567.956 589.16H541.073C537.314 589.429 533.723 588.622 530.401 586.706C527.212 584.891 524.292 582.135 521.708 578.472L521.44 578.068C520.466 576.354 519.426 574.069 518.352 571.649C515.701 565.767 512.445 558.474 509.794 559.516C491.536 566.641 473.715 570.876 454.417 571.514C435.354 572.153 414.915 569.263 391.355 562.137C384.609 561.163 383.233 564.053 381.051 568.59C380.447 569.868 379.81 571.246 378.903 572.926C378.366 574.035 378.165 574.506 377.93 574.909C374.809 581.597 371.822 588.051 362.458 589.933L361.451 590.034L326.715 589.765H326.379C324.232 589.597 322.352 589.126 320.708 588.219C318.795 587.244 317.318 585.799 316.277 583.883C313.19 578.236 315.271 573.934 317.351 569.632H317.318C317.653 568.893 318.056 568.12 318.157 567.952L318.19 567.918L330.407 541.165L330.642 540.728C331.917 538.509 332.387 536.694 332.119 535.283C331.816 533.905 330.81 532.56 329.132 531.25C326.715 529.536 324.332 527.754 322.084 525.906C319.734 524.024 317.486 522.074 315.304 520.091C308.122 513.504 301.477 505.773 295.805 497.27C290.334 489.136 285.77 480.23 282.447 470.987C279.863 463.727 278.051 456.299 277.145 448.804C276.943 447.09 276.809 445.309 276.708 443.595C265.432 438.15 257.511 428.47 253.685 415.698C249.825 402.691 250.295 386.525 256.034 368.51L265.801 371.636C260.699 387.567 260.229 401.649 263.519 412.741C265.969 420.908 270.533 427.462 276.876 431.831C277.01 430.285 277.212 428.739 277.413 427.193C279.829 410.455 286.307 394.86 295.57 381.046C340.207 314.23 424.413 305.424 497.208 317.019Z"
        fill="#FF8985" />
      <path fill-rule="evenodd" clip-rule="evenodd"
        d="M552.82 404.506C557.418 404.506 561.546 406.355 564.566 409.346C567.587 412.337 569.399 416.505 569.399 421.11C569.399 425.714 567.553 429.848 564.566 432.873C561.579 435.898 557.418 437.713 552.82 437.713C548.255 437.713 544.094 435.864 541.107 432.873C537.986 429.747 536.24 425.546 536.24 421.143C536.24 416.539 538.086 412.405 541.107 409.38C544.195 406.254 548.39 404.506 552.82 404.506ZM376.453 362.628C371.889 364.208 366.888 361.754 365.311 357.183C363.734 352.612 366.184 347.605 370.748 346.025C390.382 339.202 410.284 336.043 430.387 336.143C450.423 336.244 470.56 339.639 490.798 345.89C495.429 347.302 498.047 352.243 496.604 356.881C495.161 361.519 490.261 364.141 485.629 362.695C466.969 356.914 448.51 353.789 430.32 353.688C412.163 353.621 394.174 356.478 376.453 362.628Z"
        fill="#BC5050" />
      <path
        d="M421.493 177C444.751 177 465.828 186.444 481.099 201.737C496.336 216.996 505.766 238.103 505.766 261.428C505.766 284.72 496.336 305.827 481.099 321.12C465.862 336.379 444.785 345.823 421.493 345.823C398.235 345.823 377.158 336.379 361.888 321.12C346.651 305.861 337.22 284.754 337.22 261.428C337.22 238.137 346.651 217.03 361.888 201.737C377.158 186.444 398.235 177 421.493 177ZM424.01 194.04C462.539 194.04 493.785 225.331 493.785 263.916C493.785 302.5 462.539 333.791 424.01 333.791C385.482 333.791 354.236 302.5 354.236 263.916C354.236 225.331 385.482 194.04 424.01 194.04Z"
        fill="#FFED33" />
      <path fill-rule="evenodd" clip-rule="evenodd"
        d="M424.01 194.04C462.539 194.04 493.785 225.331 493.785 263.916C493.785 302.5 462.539 333.791 424.01 333.791C385.482 333.791 354.236 302.5 354.236 263.916C354.236 225.331 385.482 194.04 424.01 194.04Z"
        fill="#FAC900" />
      <path fill-rule="evenodd" clip-rule="evenodd"
        d="M421.493 188.999C461.432 188.999 493.785 221.399 493.785 261.395C493.785 261.798 493.785 262.235 493.785 262.638C493.114 224.625 462.136 194.04 424.044 194.04C385.515 194.04 354.269 225.331 354.269 263.916C354.269 302.063 384.81 333.085 422.769 333.757C422.366 333.757 421.929 333.757 421.527 333.757C381.588 333.757 349.235 301.357 349.235 261.361C349.201 221.432 381.555 188.999 421.493 188.999ZM452.202 241.666L432.871 244.791C432.367 243.514 431.897 242.439 431.461 241.565L448.577 238.876C447.436 233.767 445.053 229.701 441.496 226.608C442.469 227.146 443.342 227.751 444.181 228.39C448.275 231.583 450.96 236.019 452.202 241.666ZM426.628 236.792L426.393 236.658V249.967C425.219 249.631 424.01 249.295 422.769 248.959V233.935C424.581 234.91 425.856 235.885 426.628 236.792ZM445.59 259.613C446.295 260.084 446.899 260.555 447.436 261.059C452.101 265.361 454.417 270.738 454.417 277.326C454.417 281.157 453.578 284.687 451.9 287.913C450.222 291.14 448.074 293.795 445.49 295.979C442.905 298.131 440.12 299.677 437.166 300.651C434.213 301.626 430.655 302.197 426.393 302.365V312.348H418.842V308.113H422.769V298.332C427.031 298.164 430.622 297.593 433.542 296.652C436.495 295.711 439.247 294.165 441.865 292.047C444.449 289.93 446.597 287.308 448.275 284.149C449.953 281.023 450.792 277.528 450.792 273.797C450.792 268.218 449.047 263.512 445.59 259.613ZM415.251 301.962C411.794 301.492 408.874 300.786 406.525 299.878C403.37 298.668 400.618 296.988 398.336 294.837C397.161 293.728 396.121 292.585 395.214 291.409C397.396 293.291 399.98 294.803 402.9 295.912C406.055 297.089 410.183 297.929 415.284 298.366V301.962H415.251ZM408.404 276.755L411.123 276.418C411.66 279.343 412.331 281.594 413.17 283.14C411.794 282.267 410.753 281.292 410.015 280.284C409.411 279.41 408.874 278.233 408.404 276.755ZM415.251 268.285C410.116 266.739 406.39 265.394 404.008 264.218C401.927 263.176 400.047 261.697 398.369 259.781C399.04 260.218 399.712 260.622 400.383 260.958C403.303 262.369 408.27 264.05 415.251 265.999V268.285ZM422.769 217.534H426.393V220.626C425.219 220.491 424.01 220.357 422.769 220.29V217.534ZM415.251 238.204C414.848 238.506 414.512 238.842 414.244 239.179C413.371 240.254 412.935 241.565 412.935 243.044C412.935 244.287 413.237 245.43 413.808 246.405C412.364 245.766 411.324 244.993 410.653 244.153C409.78 243.044 409.31 241.699 409.31 240.187C409.31 238.742 409.747 237.464 410.619 236.389C411.492 235.313 413.036 234.406 415.251 233.7V238.204ZM430.488 273.394C429.38 272.755 428.004 272.15 426.393 271.579V283.611C425.353 284.115 424.145 284.518 422.769 284.821V268.15C426.125 269.327 428.373 270.604 429.514 271.948C429.917 272.452 430.253 272.923 430.488 273.394Z"
        fill="#D49000" />
      <path
        d="M448.577 238.842L429.246 241.901C428.273 239.447 427.4 237.767 426.628 236.826C425.856 235.885 424.581 234.944 422.768 233.969V248.993C433.273 251.816 440.254 254.774 443.812 257.866C448.477 262.067 450.792 267.377 450.792 273.83C450.792 277.595 449.953 281.057 448.275 284.182C446.597 287.342 444.449 289.963 441.865 292.081C439.281 294.198 436.495 295.711 433.542 296.685C430.588 297.66 426.997 298.198 422.768 298.366V308.146H415.217V298.332C410.149 297.895 406.021 297.089 402.833 295.879C399.678 294.702 396.926 293.055 394.644 290.938C392.362 288.854 390.583 286.569 389.341 284.149C388.099 281.729 387.16 278.771 386.555 275.343L407.464 272.923C408.068 276.318 408.941 278.805 409.982 280.284C411.022 281.796 412.767 283.14 415.217 284.317V265.966C408.203 264.05 403.269 262.336 400.349 260.924C397.429 259.513 394.912 257.227 392.764 254.068C390.616 250.942 389.542 247.111 389.542 242.607C389.542 236.456 391.69 231.28 395.986 227.146C400.316 223.012 406.692 220.693 415.217 220.256V215.147H422.768V220.256C430.521 220.727 436.462 222.575 440.556 225.735C444.651 228.961 447.336 233.297 448.577 238.842ZM415.251 233.7C413.036 234.44 411.492 235.313 410.619 236.389C409.747 237.464 409.31 238.742 409.31 240.187C409.31 241.699 409.747 243.01 410.653 244.153C411.525 245.296 413.069 246.237 415.284 246.976V233.7H415.251ZM422.768 284.821C425.722 284.149 427.836 283.073 429.212 281.561C430.588 280.048 431.26 278.368 431.26 276.486C431.26 274.839 430.689 273.36 429.514 271.982C428.373 270.604 426.091 269.327 422.768 268.184V284.821Z"
        fill="#FFED33" />
    </g>
    <path
      d="M1043 567C1043 600.137 1028.23 591 1010 591C991.775 591 977 600.137 977 567C977 533.863 1010 471 1010 471C1010 471 1043 533.863 1043 567Z"
      fill="#FF6584" />
    <path opacity="0.1"
      d="M1025 579.679C1025 594.741 1018.28 590.588 1010 590.588C1001.72 590.588 995 594.741 995 579.679C995 564.617 1010 536.043 1010 536.043C1010 536.043 1025 564.619 1025 579.679Z"
      fill="black" />
    <path
      d="M1047 600H973C968.029 600 964 604.029 964 609C964 613.971 968.029 618 973 618H1047C1051.97 618 1056 613.971 1056 609C1056 604.029 1051.97 600 1047 600Z"
      fill="#2F2E41" />
  </g>
  <path
    d="M383.7 593.881C383.7 624.101 341.576 614.754 290 614.754C238.424 614.754 196.926 624.101 196.926 593.881C196.926 563.661 239.04 557.081 290.616 557.081C342.192 557.081 383.7 563.657 383.7 593.881Z"
    fill="#3F3D56" />
  <path
    d="M1046 595H972C967.029 595 963 599.029 963 604C963 608.971 967.029 613 972 613H1046C1050.97 613 1055 608.971 1055 604C1055 599.029 1050.97 595 1046 595Z"
    fill="#2F2E41" />
  <defs>
    <clipPath id="clip0_2_195">
      <rect width="1088" height="687.962" fill="white" />
    </clipPath>
    <clipPath id="clip1_2_195">
      <rect width="88.4671" height="88.4671" fill="white"
        transform="translate(871.183 414.479) rotate(15)" />
    </clipPath>
    <clipPath id="clip2_2_195">
      <rect width="392" height="413" fill="white" transform="translate(251 177)" />
    </clipPath>
  </defs>
</svg>
  