<svg width="1084" height="663" viewBox="0 0 1084 663" fill="none" xmlns="http://www.w3.org/2000/svg">
  <path
    d="M321 642C498.283 642 642 498.283 642 321C642 143.717 498.283 0 321 0C143.717 0 0 143.717 0 321C0 498.283 143.717 642 321 642Z"
    fill="#F2F2F2" />
  <path
    d="M514 663C797.874 663 1028 650.688 1028 635.5C1028 620.312 797.874 608 514 608C230.126 608 0 620.312 0 635.5C0 650.688 230.126 663 514 663Z"
    fill="#3F3D56" />
  <path opacity="0.2"
    d="M513 649C767.051 649 973 639.15 973 627C973 614.85 767.051 605 513 605C258.949 605 53 614.85 53 627C53 639.15 258.949 649 513 649Z"
    fill="black" />
  <path d="M926 152.5H86V202.5H926V152.5Z" fill="#3F3D56" />
  <path
    d="M86 608.83C86 611.676 86.5605 614.494 87.6495 617.123C88.7386 619.752 90.3348 622.141 92.347 624.153C94.3593 626.165 96.7482 627.761 99.3773 628.85C102.006 629.939 104.824 630.5 107.67 630.5H904.33C907.176 630.5 909.994 629.939 912.623 628.85C915.252 627.761 917.641 626.165 919.653 624.153C921.665 622.141 923.261 619.752 924.35 617.123C925.439 614.494 926 611.676 926 608.83V177.5H86V608.83Z"
    fill="#3F3D56" />
  <path
    d="M904.33 117.5H107.67C104.824 117.5 102.006 118.061 99.3773 119.15C96.7482 120.239 94.3593 121.835 92.347 123.847C90.3348 125.859 88.7386 128.248 87.6495 130.877C86.5605 133.506 86 136.324 86 139.17V177.5H926V139.17C926 136.324 925.439 133.506 924.35 130.877C923.261 128.248 921.665 125.859 919.653 123.847C917.641 121.835 915.252 120.239 912.623 119.15C909.994 118.061 907.176 117.5 904.33 117.5Z"
    fill="#3F3D56" />
  <path opacity="0.2"
    d="M904.33 117.5H107.67C104.824 117.5 102.006 118.061 99.3773 119.15C96.7482 120.239 94.3593 121.835 92.347 123.847C90.3348 125.859 88.7386 128.248 87.6495 130.877C86.5605 133.506 86 136.324 86 139.17V177.5H926V139.17C926 136.324 925.439 133.506 924.35 130.877C923.261 128.248 921.665 125.859 919.653 123.847C917.641 121.835 915.252 120.239 912.623 119.15C909.994 118.061 907.176 117.5 904.33 117.5Z"
    fill="black" />
  <path
    d="M136 160.5C143.18 160.5 149 154.68 149 147.5C149 140.32 143.18 134.5 136 134.5C128.82 134.5 123 140.32 123 147.5C123 154.68 128.82 160.5 136 160.5Z"
    fill="#3F3D56" />
  <path
    d="M172 160.5C179.18 160.5 185 154.68 185 147.5C185 140.32 179.18 134.5 172 134.5C164.82 134.5 159 140.32 159 147.5C159 154.68 164.82 160.5 172 160.5Z"
    fill="#3F3D56" />
  <path
    d="M208 160.5C215.18 160.5 221 154.68 221 147.5C221 140.32 215.18 134.5 208 134.5C200.82 134.5 195 140.32 195 147.5C195 154.68 200.82 160.5 208 160.5Z"
    fill="#3F3D56" />
  <path
    d="M454.665 213.5H128.335C125.389 213.5 123 215.889 123 218.835V594.165C123 597.111 125.389 599.5 128.335 599.5H454.665C457.611 599.5 460 597.111 460 594.165V218.835C460 215.889 457.611 213.5 454.665 213.5Z"
    fill="#E3E3E3" />
  <path
    d="M836.524 272.5H563.476C560.452 272.5 558 274.952 558 277.976V289.024C558 292.048 560.452 294.5 563.476 294.5H836.524C839.548 294.5 842 292.048 842 289.024V277.976C842 274.952 839.548 272.5 836.524 272.5Z"
    fill="black" fill-opacity="0.22" />
  <path
    d="M902.524 352.5H497.476C494.452 352.5 492 354.952 492 357.976V362.024C492 365.048 494.452 367.5 497.476 367.5H902.524C905.548 367.5 908 365.048 908 362.024V357.976C908 354.952 905.548 352.5 902.524 352.5Z"
    fill="black" fill-opacity="0.22" />
  <path
    d="M902.524 396.5H497.476C494.452 396.5 492 398.952 492 401.976V406.024C492 409.048 494.452 411.5 497.476 411.5H902.524C905.548 411.5 908 409.048 908 406.024V401.976C908 398.952 905.548 396.5 902.524 396.5Z"
    fill="black" fill-opacity="0.22" />
  <path
    d="M902.524 440.5H497.476C494.452 440.5 492 442.952 492 445.976V450.024C492 453.048 494.452 455.5 497.476 455.5H902.524C905.548 455.5 908 453.048 908 450.024V445.976C908 442.952 905.548 440.5 902.524 440.5Z"
    fill="black" fill-opacity="0.22" />
  <path
    d="M902.524 484.5H497.476C494.452 484.5 492 486.952 492 489.976V494.024C492 497.048 494.452 499.5 497.476 499.5H902.524C905.548 499.5 908 497.048 908 494.024V489.976C908 486.952 905.548 484.5 902.524 484.5Z"
    fill="black" fill-opacity="0.22" />
  <path
    d="M900.972 552.5H827.028C823.146 552.5 820 555.646 820 559.528V571.472C820 575.354 823.146 578.5 827.028 578.5H900.972C904.854 578.5 908 575.354 908 571.472V559.528C908 555.646 904.854 552.5 900.972 552.5Z"
    fill="black" fill-opacity="0.22" />
  <path
    d="M1008.1 506.116C1010.76 501.472 1012.14 496.202 1012.09 490.85C1012.09 477.053 1003.54 465.869 993.003 465.869C982.464 465.869 973.921 477.053 973.921 490.85C973.868 496.202 975.243 501.472 977.904 506.116C975.292 510.78 973.921 516.036 973.921 521.382C973.921 526.728 975.292 531.984 977.904 536.648C975.292 541.312 973.921 546.569 973.921 551.914C973.921 557.26 975.292 562.516 977.904 567.18C975.292 571.844 973.921 577.101 973.921 582.446C973.921 587.792 975.292 593.048 977.904 597.712C975.243 602.356 973.868 607.626 973.921 612.978C973.921 626.775 982.464 637.959 993.003 637.959C1003.54 637.959 1012.09 626.775 1012.09 612.978C1012.14 607.626 1010.76 602.356 1008.1 597.712C1010.71 593.048 1012.09 587.792 1012.09 582.446C1012.09 577.101 1010.71 571.844 1008.1 567.18C1010.71 562.516 1012.09 557.26 1012.09 551.914C1012.09 546.569 1010.71 541.312 1008.1 536.648C1010.71 531.984 1012.09 526.728 1012.09 521.382C1012.09 516.036 1010.71 510.78 1008.1 506.116Z"
    fill="#3F3D56" />
  <path
    d="M993.003 485.299C1003.54 485.299 1012.09 474.114 1012.09 460.318C1012.09 446.521 1003.54 435.337 993.003 435.337C982.464 435.337 973.921 446.521 973.921 460.318C973.921 474.114 982.464 485.299 993.003 485.299Z"
    fill="#3F3D56" />
  <path
    d="M993.003 454.767C1003.54 454.767 1012.09 443.582 1012.09 429.786C1012.09 415.989 1003.54 404.805 993.003 404.805C982.464 404.805 973.921 415.989 973.921 429.786C973.921 443.582 982.464 454.767 993.003 454.767Z"
    fill="#3F3D56" />
  <path fill-rule="evenodd" clip-rule="evenodd"
    d="M1064.44 220.845C1067.05 217.526 1069.42 214.03 1071.55 210.384L1021.4 202.149L1075.63 202.552C1080.84 191.234 1083.67 178.973 1083.97 166.519C1084.27 154.066 1082.03 141.682 1077.38 130.126L1004.62 167.868L1071.72 118.547C1065.43 107.684 1056.98 98.2325 1046.88 90.7803C1036.78 83.328 1025.26 78.035 1013.03 75.231C1000.79 72.4269 988.113 72.1718 975.777 74.4817C963.441 76.7915 951.713 81.6168 941.323 88.6569C930.933 95.6969 922.105 104.801 915.387 115.402C908.669 126.003 904.206 137.874 902.276 150.275C900.346 162.676 900.99 175.341 904.169 187.482C907.347 199.624 912.991 210.98 920.75 220.845C916.686 226.011 913.191 231.599 910.325 237.514L975.412 271.329L906.011 248.037C901.139 262.442 899.934 277.835 902.508 292.822C905.081 307.81 911.351 321.919 920.75 333.874C910.145 347.356 903.548 363.551 901.713 380.606C899.878 397.662 902.88 414.889 910.374 430.319C917.869 445.749 929.554 458.758 944.093 467.86C958.633 476.962 975.441 481.789 992.594 481.789C1009.75 481.789 1026.56 476.962 1041.1 467.86C1055.63 458.758 1067.32 445.749 1074.81 430.319C1082.31 414.889 1085.31 397.662 1083.48 380.606C1081.64 363.551 1075.04 347.356 1064.44 333.874C1077.11 317.761 1084 297.858 1084 277.359C1084 256.861 1077.11 236.957 1064.44 220.845Z"
    fill="#6C63FF" />
  <path opacity="0.1"
    d="M901.188 277.359C901.157 297.863 908.05 317.777 920.75 333.874C910.145 347.356 903.548 363.551 901.713 380.606C899.878 397.662 902.879 414.889 910.374 430.319C917.868 445.749 929.554 458.758 944.093 467.86C958.633 476.962 975.441 481.789 992.594 481.789C1009.75 481.789 1026.56 476.962 1041.1 467.86C1055.63 458.758 1067.32 445.749 1074.81 430.319C1082.31 414.889 1085.31 397.662 1083.48 380.606C1081.64 363.551 1075.04 347.356 1064.44 333.874C1076.69 318.321 901.188 267.1 901.188 277.359Z"
    fill="black" />
  <rect x="953.247" y="357" width="113" height="113" rx="56.5" transform="rotate(15 953.247 357)"
    fill="white" />
  <g clip-path="url(#clip0_2_328)">
    <path
      d="M982.238 468.538C979.736 467.871 977.488 466.476 975.779 464.531C974.069 462.585 972.976 460.177 972.635 457.61C972.295 455.042 972.724 452.432 973.868 450.109C975.012 447.785 976.819 445.853 979.061 444.557C981.303 443.261 983.879 442.66 986.463 442.828C989.048 442.996 991.524 443.927 993.579 445.503C995.634 447.079 997.175 449.229 998.008 451.681C998.84 454.133 998.927 456.777 998.257 459.279C997.359 462.63 995.167 465.487 992.164 467.224C989.16 468.96 985.59 469.433 982.238 468.538ZM987.325 449.552C986.071 449.216 984.745 449.259 983.515 449.677C982.286 450.094 981.207 450.867 980.417 451.897C979.626 452.927 979.159 454.169 979.074 455.465C978.989 456.761 979.29 458.052 979.94 459.177C980.589 460.302 981.557 461.209 982.722 461.783C983.887 462.357 985.195 462.573 986.483 462.404C987.77 462.234 988.979 461.687 989.955 460.831C990.931 459.974 991.632 458.848 991.968 457.594C992.419 455.912 992.183 454.119 991.312 452.611C990.441 451.103 989.007 450.003 987.325 449.552Z"
      fill="#0067F5" />
    <path
      d="M1022.7 452.048L962.714 435.974L1001.31 397.372L1001.32 397.433L1006.65 392.108L1004.68 384.782L950.121 439.34L1024.65 459.31L1022.7 452.048Z"
      fill="#0067F5" />
    <path
      d="M1019.46 439.929L986.275 431.039L991.579 425.72L1010.24 430.721L1008.93 425.817L1005.24 412.021L1003.28 404.742L1003.28 404.698L1008.6 399.383L1016.2 427.767L1018.15 435.029L1019.46 439.929Z"
      fill="#0067F5" />
    <path d="M991.579 425.72L986.275 431.039L985.367 430.796L987.052 424.507L991.579 425.72Z"
      fill="#0067F5" />
    <path
      d="M1005.24 412.021L991.579 425.72L986.275 431.039L977.057 440.447L969.794 438.5L1003.28 404.742L1005.24 412.021Z"
      fill="#0067F5" />
  </g>
  <path opacity="0.5"
    d="M211.248 546.852H207.75C195.061 546.852 188.717 546.852 184.775 542.91C180.833 538.968 180.833 532.624 180.833 519.936V504.97C180.833 497.992 180.833 494.503 182.626 491.388C184.418 488.271 187.122 486.699 192.53 483.554C228.134 462.845 278.696 451.189 312.444 471.317C314.71 472.67 316.75 474.302 318.492 476.259C326.003 484.696 325.457 497.429 316.8 504.985C314.971 506.58 313.024 507.791 311.061 508.211C312.674 508.024 314.219 507.81 315.694 507.574C327.96 505.617 338.255 499.063 347.682 491.942L372.003 473.57C380.578 467.093 393.304 467.091 401.88 473.566C409.601 479.396 411.961 488.995 407.08 496.818C401.388 505.943 393.369 517.615 385.668 524.747C377.956 531.889 366.476 538.266 357.104 542.789C346.721 547.801 335.251 550.688 323.584 552.577C299.923 556.406 275.265 555.822 251.844 550.997C238.604 548.269 224.853 546.852 211.248 546.852Z"
    fill="#1C274C" />
  <path
    d="M273.175 304.265C279.993 292.033 283.403 285.917 288.5 285.917C293.597 285.917 297.007 292.033 303.825 304.265L305.589 307.43C307.527 310.906 308.496 312.644 310.006 313.79C311.518 314.937 313.399 315.363 317.161 316.214L320.587 316.989C333.829 319.985 340.449 321.483 342.024 326.549C343.6 331.614 339.086 336.892 330.059 347.448L327.723 350.179C325.158 353.178 323.875 354.678 323.299 356.534C322.722 358.389 322.916 360.39 323.303 364.392L323.656 368.036C325.02 382.12 325.704 389.162 321.579 392.293C317.456 395.423 311.257 392.569 298.859 386.86L295.652 385.384C292.128 383.762 290.367 382.95 288.5 382.95C286.633 382.95 284.872 383.762 281.348 385.384L278.141 386.86C265.743 392.569 259.544 395.423 255.42 392.293C251.296 389.162 251.979 382.12 253.344 368.036L253.697 364.392C254.084 360.39 254.278 358.389 253.701 356.534C253.124 354.678 251.842 353.178 249.277 350.179L246.941 347.448C237.914 336.892 233.401 331.614 234.976 326.549C236.551 321.483 243.171 319.985 256.413 316.989L259.838 316.214C263.601 315.363 265.482 314.937 266.994 313.79C268.504 312.644 269.473 310.906 271.411 307.43L273.175 304.265Z"
    fill="#1C274C" />
  <path
    d="M388.503 362.382C391.914 356.266 393.618 353.208 396.167 353.208C398.716 353.208 400.419 356.266 403.83 362.382L404.711 363.965C405.68 365.703 406.165 366.572 406.92 367.145C407.675 367.719 408.616 367.931 410.497 368.357L412.21 368.745C418.83 370.243 422.141 370.992 422.929 373.524C423.716 376.057 421.46 378.696 416.946 383.974L415.778 385.339C414.496 386.839 413.855 387.589 413.566 388.517C413.278 389.445 413.374 390.445 413.568 392.446L413.745 394.268C414.427 401.31 414.769 404.83 412.707 406.396C410.645 407.961 407.546 406.534 401.347 403.68L399.742 402.942C397.981 402.131 397.101 401.726 396.167 401.726C395.233 401.726 394.352 402.131 392.591 402.942L390.987 403.68C384.788 406.534 381.688 407.961 379.626 406.396C377.564 404.83 377.906 401.31 378.589 394.268L378.765 392.446C378.959 390.445 379.056 389.445 378.768 388.517C378.478 387.589 377.838 386.839 376.555 385.339L375.387 383.974C370.874 378.696 368.617 376.057 369.405 373.524C370.192 370.992 373.503 370.243 380.123 368.745L381.836 368.357C383.718 367.931 384.658 367.719 385.413 367.145C386.168 366.572 386.653 365.703 387.622 363.965L388.503 362.382Z"
    fill="#1C274C" />
  <path
    d="M173.17 362.382C176.58 356.266 178.285 353.208 180.833 353.208C183.382 353.208 185.087 356.266 188.496 362.382L189.378 363.965C190.347 365.703 190.831 366.572 191.587 367.145C192.342 367.719 193.283 367.931 195.164 368.357L196.877 368.745C203.497 370.243 206.808 370.992 207.595 373.524C208.383 376.057 206.126 378.696 201.613 383.974L200.445 385.339C199.162 386.839 198.521 387.589 198.233 388.517C197.944 389.445 198.041 390.445 198.235 392.446L198.411 394.268C199.094 401.31 199.435 404.83 197.373 406.396C195.311 407.961 192.212 406.534 186.013 403.68L184.409 402.942C182.648 402.131 181.767 401.726 180.833 401.726C179.9 401.726 179.019 402.131 177.257 402.942L175.654 403.68C169.455 406.534 166.355 407.961 164.293 406.396C162.231 404.83 162.573 401.31 163.255 394.268L163.432 392.446C163.626 390.445 163.722 389.445 163.434 388.517C163.145 387.589 162.504 386.839 161.221 385.339L160.054 383.974C155.54 378.696 153.283 376.057 154.071 373.524C154.859 370.992 158.169 370.243 164.79 368.745L166.503 368.357C168.384 367.931 169.325 367.719 170.08 367.145C170.835 366.572 171.32 365.703 172.288 363.965L173.17 362.382Z"
    fill="#1C274C" />
  <defs>
    <clipPath id="clip0_2_328">
      <rect width="88.4671" height="88.4671" fill="white"
        transform="translate(962.183 372.479) rotate(15)" />
    </clipPath>
  </defs>
</svg>
  