<svg width="1042" height="555" viewBox="0 0 1042 555" fill="none" xmlns="http://www.w3.org/2000/svg">
  <path fill-rule="evenodd" clip-rule="evenodd"
    d="M264.165 461.726C264.372 462.616 264.6 463.429 264.831 464.157C260.86 462.075 257.844 458.665 256.2 454.652C258.127 454.158 260.534 453.755 263.304 453.73C263.266 456.801 263.65 459.506 264.165 461.726ZM267.818 460.877C267.37 458.949 267.033 456.6 267.052 453.929C268.507 454.097 270.032 454.377 271.616 454.801C273.199 455.226 274.661 455.746 276.004 456.328C274.685 458.651 273.218 460.516 271.866 461.962C270.782 463.122 269.774 464.009 268.978 464.643C268.607 463.697 268.177 462.424 267.818 460.877ZM268.123 446.101C267.745 447.511 267.482 448.876 267.31 450.184C268.99 450.369 270.754 450.688 272.586 451.179C274.418 451.67 276.105 452.275 277.653 452.956C278.159 451.736 278.612 450.423 278.99 449.013C279.368 447.602 279.632 446.238 279.803 444.929C278.123 444.744 276.359 444.425 274.528 443.935C272.695 443.444 271.008 442.838 269.461 442.158C268.955 443.377 268.501 444.69 268.123 446.101ZM266.107 440.459C265.496 441.897 264.951 443.453 264.501 445.13C264.052 446.808 263.746 448.428 263.556 449.979C260.26 449.981 257.401 450.462 255.132 451.055C254.619 448.367 254.69 445.524 255.446 442.704C256.201 439.883 257.561 437.386 259.349 435.315C261.018 436.962 263.253 438.809 266.107 440.459ZM271.11 438.786C272.453 439.368 273.914 439.888 275.498 440.312C277.082 440.737 278.607 441.017 280.061 441.184C280.081 438.513 279.743 436.165 279.295 434.236C278.936 432.69 278.507 431.417 278.135 430.47C277.34 431.104 276.331 431.992 275.247 433.151C273.895 434.598 272.429 436.463 271.11 438.786ZM283.557 445.135C283.367 446.686 283.062 448.306 282.612 449.983C282.163 451.661 281.617 453.216 281.006 454.654C283.86 456.304 286.095 458.151 287.764 459.799C289.552 457.727 290.912 455.23 291.668 452.41C292.424 449.589 292.494 446.747 291.982 444.059C289.713 444.651 286.854 445.133 283.557 445.135ZM290.914 440.462C288.986 440.956 286.58 441.359 283.81 441.383C283.847 438.313 283.464 435.608 282.948 433.388C282.742 432.498 282.513 431.685 282.282 430.956C286.253 433.039 289.27 436.448 290.914 440.462ZM267.764 437.084C265.378 435.678 263.495 434.126 262.073 432.734C265.503 430.08 269.82 428.636 274.3 428.817C273.736 429.333 273.132 429.923 272.508 430.59C270.951 432.255 269.267 434.406 267.764 437.084ZM279.35 458.03C277.846 460.708 276.162 462.858 274.606 464.523C273.982 465.191 273.377 465.781 272.813 466.296C277.293 466.478 281.61 465.033 285.041 462.38C283.619 460.988 281.736 459.436 279.35 458.03ZM267.733 469.29C279.736 472.506 292.074 465.383 295.29 453.38C298.506 441.377 291.383 429.04 279.38 425.823C267.377 422.607 255.04 429.73 251.823 441.733C248.607 453.736 255.73 466.074 267.733 469.29Z"
    fill="#A5D3FD" fill-opacity="0.51" />
  <path
    d="M961.469 438.175C960.309 440.675 959.152 443.142 957.999 445.575C956.199 449.355 954.422 453.062 952.669 456.695C951.889 458.305 951.109 459.885 950.349 461.465C941.749 479.035 933.719 494.575 926.899 507.355C920.711 518.935 911.522 528.637 900.295 535.446C889.069 542.255 876.218 545.919 863.089 546.055L711.439 547.705H709.839L696.839 547.845L685.719 547.965L651.619 548.335H650.239L632.879 548.525H632.349L525.349 549.685L429.839 550.685L418.729 550.805L349.729 551.555H349.649L304.899 552.035H304.419L162.919 553.565L120.589 554.025C116.985 554.066 113.381 553.886 109.799 553.485C108.579 553.345 107.359 553.185 106.149 552.995C86.407 549.948 68.3051 540.228 54.859 525.455C36.649 505.425 23.399 482.055 14.499 456.695C13.2123 453.035 12.0123 449.328 10.899 445.575C-19.911 341.425 17.649 207.055 85.249 117.135C88.0823 113.375 90.9623 109.708 93.889 106.135L93.959 106.055C114.749 80.535 138.059 59.215 162.889 44.055C206.889 17.145 255.639 9.565 303.589 32.155C344.159 51.275 382.039 60.265 418.759 62.705C422.469 62.945 426.179 63.125 429.869 63.235C514.099 65.885 593.039 35.535 685.739 15.945C689.429 15.165 693.129 14.395 696.859 13.665C762.989 0.504997 836.349 -6.435 923.589 8.155C932.653 9.63566 941.596 11.7747 950.349 14.555C954.196 15.795 957.902 17.1283 961.469 18.555C1003.11 35.495 1025.82 66.795 1035.47 106.015C1036.38 109.655 1037.17 113.358 1037.84 117.125C1054.95 211.465 1004.84 345.285 961.469 438.175Z"
    fill="#F2F2F2" />
  <path opacity="0.1"
    d="M497.009 445.575C496.606 449.315 495.981 453.029 495.139 456.695H588.839V445.575H497.009ZM418.759 508.385L429.869 508.295V480.825C426.059 480.655 422.349 480.485 418.759 480.305V508.385ZM185.839 445.575V456.695H384.339V445.575H185.839ZM1035.52 106.055H961.519V18.565C957.952 17.1183 954.246 15.785 950.399 14.565V106.055H696.859V13.635C693.129 14.365 689.429 15.135 685.739 15.915V106.055H429.869V63.205C426.179 63.095 422.469 62.915 418.759 62.675V106.055H162.889V44.055C138.059 59.215 114.749 80.535 93.959 106.055H93.889V106.135C90.9557 109.735 88.0757 113.402 85.249 117.135H93.889V445.575H10.889C11.9956 449.328 13.1956 453.035 14.489 456.695H93.879V550.315C97.8734 551.537 101.951 552.469 106.079 553.105C107.289 553.295 108.509 553.455 109.729 553.595C113.311 553.996 116.915 554.176 120.519 554.135L162.849 553.675V456.675H418.759V550.885L429.869 550.765V456.695H685.739V548.055L696.859 547.935V456.695H950.349V461.465C951.109 459.885 951.889 458.305 952.669 456.695C954.422 453.062 956.199 449.355 957.999 445.575C959.152 443.148 960.309 440.682 961.469 438.175V117.175H1037.89C1037.22 113.382 1036.43 109.675 1035.52 106.055ZM162.889 445.575V117.135H418.759V445.575H162.889ZM429.889 445.575V117.135H685.739V445.575H429.889ZM950.369 445.575H696.859V117.135H950.349L950.369 445.575Z"
    fill="black" />
  <path
    d="M863.079 533.615V546.615L711.159 548.015L709.539 548.045L651.799 548.575L650.419 548.595L632.869 548.745H632.349L525.369 549.735L349.759 551.365H349.609L304.959 551.785L304.479 551.795L106.079 553.615V538.615L152.729 510.615L246.329 509.835L248.329 509.825L248.989 509.815L250.989 509.785L295.929 509.415L297.939 509.405L298.579 509.395L300.579 509.385L314.989 509.265L315.369 509.255L350.919 508.955H351.209L628.609 506.615L635.399 506.565H636.079L641.259 506.515L678.909 506.205L680.909 506.175L682.759 506.155H683.719L695.429 506.065L697.749 506.035L700.859 506.015L710.609 505.925L726.079 505.795L728.079 505.775L731.559 505.755H732.209L806.919 505.115L863.079 533.615Z"
    fill="#65617D" />
  <path opacity="0.2"
    d="M863.079 533.615V546.615L711.159 548.015L709.539 548.045L651.799 548.575L650.419 548.595L632.869 548.745H632.349L525.369 549.735L349.759 551.365H349.609L304.959 551.785L304.479 551.795L106.079 553.615V538.615L152.729 510.615L246.329 509.835L248.329 509.825L248.989 509.815L250.989 509.785L295.929 509.415L297.939 509.405L298.579 509.395L300.579 509.385L314.989 509.265L315.369 509.255L350.919 508.955H351.209L628.609 506.615L635.399 506.565H636.079L641.259 506.515L678.909 506.205L680.909 506.175L682.759 506.155H683.719L695.429 506.065L697.749 506.035L700.859 506.015L710.609 505.925L726.079 505.795L728.079 505.775L731.559 505.755H732.209L806.919 505.115L863.079 533.615Z"
    fill="black" />
  <path
    d="M296.089 483.625V508.115C296.09 509.275 295.761 510.411 295.141 511.392C294.522 512.373 293.637 513.157 292.589 513.655C291.809 514.033 290.956 514.238 290.089 514.255L255.189 514.995C254.257 515.017 253.333 514.822 252.489 514.425C251.423 513.936 250.519 513.151 249.887 512.164C249.254 511.176 248.918 510.028 248.919 508.855V483.625H296.089Z"
    fill="#3F3D56" />
  <path opacity="0.1"
    d="M296.089 483.625V508.115C296.09 509.275 295.761 510.411 295.141 511.392C294.522 512.373 293.637 513.157 292.589 513.655C291.809 514.033 290.956 514.238 290.089 514.255L255.189 514.995C254.257 515.017 253.333 514.822 252.489 514.425C251.423 513.936 250.519 513.151 249.887 512.164C249.254 511.176 248.918 510.028 248.919 508.855V483.625H296.089Z"
    fill="black" />
  <path
    d="M298.089 483.625V508.115C298.09 509.275 297.761 510.411 297.141 511.392C296.522 512.373 295.637 513.157 294.589 513.655C293.809 514.033 292.956 514.238 292.089 514.255L257.189 514.995C256.257 515.017 255.333 514.822 254.489 514.425C253.423 513.936 252.519 513.151 251.887 512.164C251.254 511.176 250.918 510.028 250.919 508.855V483.625H298.089Z"
    fill="#3F3D56" />
  <path d="M728.079 483.615H680.909V515.115H728.079V483.615Z" fill="#3F3D56" />
  <path opacity="0.1" d="M728.079 483.615H680.909V515.115H728.079V483.615Z" fill="black" />
  <path d="M726.079 483.615H678.909V515.115H726.079V483.615Z" fill="#3F3D56" />
  <path opacity="0.1" d="M298.079 483.615V488.585L250.909 489.845V483.615H298.079Z" fill="black" />
  <path
    d="M381.339 312.325V480.525C381.327 481.552 380.92 482.534 380.204 483.27C379.487 484.005 378.515 484.437 377.489 484.475L185.839 489.575H185.789C184.745 489.562 183.748 489.142 183.01 488.404C182.272 487.666 181.852 486.669 181.839 485.625V312.325C181.852 311.281 182.272 310.284 183.01 309.546C183.748 308.808 184.745 308.388 185.789 308.375H377.389C378.433 308.388 379.43 308.808 380.168 309.546C380.906 310.284 381.326 311.281 381.339 312.325Z"
    fill="#65617D" />
  <path opacity="0.1"
    d="M185.839 308.375V489.575H185.789C184.745 489.562 183.748 489.142 183.01 488.404C182.272 487.666 181.852 486.669 181.839 485.625V312.325C181.852 311.281 182.272 310.284 183.01 309.546C183.748 308.808 184.745 308.388 185.789 308.375H185.839Z"
    fill="black" />
  <path d="M194.579 319.115H372.079V467.365L194.579 471.365V319.115Z" fill="#39374D" />
  <path opacity="0.1" d="M726.079 483.615V490.025L678.909 488.765V483.615H726.079Z" fill="black" />
  <path
    d="M788.339 312.325V485.625C788.326 486.677 787.899 487.682 787.15 488.421C786.401 489.161 785.391 489.575 784.339 489.575L592.649 484.475C591.623 484.437 590.651 484.005 589.934 483.27C589.218 482.534 588.811 481.552 588.799 480.525V312.325C588.812 311.281 589.232 310.284 589.97 309.546C590.708 308.808 591.705 308.388 592.749 308.375H784.349C785.4 308.378 786.407 308.793 787.154 309.532C787.9 310.271 788.326 311.275 788.339 312.325Z"
    fill="#65617D" />
  <path opacity="0.1"
    d="M788.339 312.325V485.625C788.326 486.677 787.899 487.682 787.15 488.421C786.401 489.161 785.391 489.575 784.339 489.575V308.375C785.391 308.375 786.401 308.789 787.15 309.529C787.899 310.268 788.326 311.273 788.339 312.325Z"
    fill="black" />
  <path d="M775.579 319.115H598.079V467.365L775.579 471.365V319.115Z" fill="#39374D" />
  <path
    d="M583.839 312.325V480.525C583.827 481.552 583.42 482.534 582.704 483.27C581.987 484.005 581.015 484.437 579.989 484.475L388.339 489.575C387.287 489.575 386.277 489.161 385.528 488.421C384.779 487.682 384.352 486.677 384.339 485.625V312.325C384.352 311.281 384.772 310.284 385.51 309.546C386.248 308.808 387.245 308.388 388.289 308.375H579.889C580.933 308.388 581.93 308.808 582.668 309.546C583.406 310.284 583.826 311.281 583.839 312.325Z"
    fill="#65617D" />
  <path d="M397.079 319.115H574.579V467.365L397.079 471.365V319.115Z" fill="#4267B2" />
  <path opacity="0.1"
    d="M863.079 533.615V546.615L711.159 548.015L709.539 548.045L651.799 548.575L650.419 548.595L632.869 548.745H632.349L525.369 549.735L349.759 551.365H349.609L304.959 551.785L304.479 551.795L106.079 553.615V538.615L308.589 537.285H309.069L350.059 537.005H350.249L633.329 535.135H633.619L633.789 535.125H634.259L639.049 535.095H640.509L714.999 534.595L719.399 534.575L720.379 534.565L863.079 533.615Z"
    fill="black" />
  <path
    d="M487.249 349.445C515.598 349.445 538.579 326.464 538.579 298.115C538.579 269.766 515.598 246.785 487.249 246.785C458.9 246.785 435.919 269.766 435.919 298.115C435.919 326.464 458.9 349.445 487.249 349.445Z"
    fill="#FBBEBE" />
  <g clip-path="url(#clip0_2_560)">
    <path
      d="M736.732 414.641C742.058 414.775 746.484 410.566 746.618 405.239C746.752 399.913 742.542 395.487 737.216 395.353C731.89 395.22 727.464 399.429 727.33 404.755C727.197 410.081 731.406 414.507 736.732 414.641Z"
      fill="#7087A7" />
    <path
      d="M724.247 438.338C729.573 438.471 733.999 434.262 734.133 428.936C734.267 423.61 730.057 419.184 724.731 419.05C719.405 418.916 714.979 423.125 714.845 428.452C714.712 433.778 718.921 438.204 724.247 438.338Z"
      fill="#7087A7" />
    <path
      d="M708.818 439.731L697.969 439.458L687.12 439.186C680.518 439.02 676.248 444.37 676.077 451.201L675.654 468.02L683.059 468.206L683.433 453.339C683.45 452.65 684.036 452.205 684.61 452.219C685.298 452.237 685.746 452.707 685.729 453.396L685.357 468.206L709.18 468.805L709.551 453.994C709.569 453.305 710.154 452.861 710.728 452.875C711.417 452.892 711.862 453.478 711.848 454.052L711.476 468.862L718.881 469.048L719.3 452.344C719.588 445.458 715.534 439.899 708.818 439.731Z"
      fill="#7087A7" />
    <path
      d="M712.163 414.024C717.489 414.158 721.915 409.949 722.049 404.623C722.183 399.296 717.974 394.87 712.647 394.737C707.321 394.603 702.895 398.812 702.761 404.138C702.628 409.464 706.837 413.891 712.163 414.024Z"
      fill="#7087A7" />
    <path
      d="M740.16 429.087C740.026 434.426 744.224 438.839 749.562 438.973C754.901 439.107 759.314 434.91 759.448 429.571C759.582 424.233 755.385 419.819 750.046 419.685C744.708 419.551 740.294 423.749 740.16 429.087Z"
      fill="#7087A7" />
    <path
      d="M738.898 440.486C732.296 440.32 728.026 445.67 727.855 452.501L727.433 469.32L734.838 469.506L735.211 454.639C735.228 453.95 735.814 453.505 736.388 453.519C737.077 453.537 737.524 454.007 737.507 454.696L737.135 469.506L760.958 470.104L761.33 455.294C761.347 454.605 761.932 454.161 762.507 454.175C763.195 454.192 763.64 454.778 763.626 455.352L763.254 470.162L770.659 470.348L771.078 453.644C771.368 446.701 767.314 441.142 760.655 440.975L749.806 440.702L738.899 440.429L738.898 440.486Z"
      fill="#7087A7" />
    <path
      d="M648.474 436.435C653.8 436.569 658.226 432.36 658.36 427.033C658.494 421.707 654.284 417.281 648.958 417.148C643.632 417.014 639.206 421.223 639.072 426.549C638.939 431.875 643.148 436.301 648.474 436.435Z"
      fill="#7087A7" />
    <path
      d="M633.349 466.901L633.721 452.091C633.738 451.402 634.324 450.957 634.898 450.971C635.587 450.989 636.034 451.459 636.017 452.148L635.645 466.958L659.468 467.556L659.84 452.746C659.857 452.057 660.443 451.613 661.017 451.627C661.705 451.644 662.15 452.23 662.136 452.804L661.764 467.614L669.169 467.8L669.589 451.096C669.878 444.153 665.824 438.594 659.165 438.427L648.316 438.154L637.467 437.882C630.865 437.716 626.595 443.066 626.424 449.897L626.002 466.716L633.349 466.901Z"
      fill="#7087A7" />
    <path
      d="M688.612 427.793C688.478 433.132 692.675 437.545 698.013 437.679C703.352 437.813 707.765 433.616 707.899 428.277C708.033 422.939 703.836 418.525 698.498 418.391C693.159 418.257 688.746 422.454 688.612 427.793Z"
      fill="#7087A7" />
    <path
      d="M661.418 412.75C666.744 412.884 671.171 408.675 671.304 403.349C671.438 398.022 667.229 393.596 661.903 393.463C656.576 393.329 652.15 397.538 652.017 402.864C651.883 408.19 656.092 412.617 661.418 412.75Z"
      fill="#7087A7" />
    <path
      d="M687.48 413.405C692.806 413.538 697.232 409.329 697.366 404.003C697.499 398.677 693.29 394.251 687.964 394.117C682.638 393.983 678.212 398.192 678.078 403.519C677.944 408.845 682.153 413.271 687.48 413.405Z"
      fill="#7087A7" />
    <path
      d="M724.735 393.719C730.062 393.853 734.488 389.643 734.621 384.317C734.755 378.991 730.546 374.565 725.22 374.431C719.893 374.298 715.467 378.507 715.334 383.833C715.2 389.159 719.409 393.585 724.735 393.719Z"
      fill="#7087A7" />
    <path
      d="M673.99 392.445C679.317 392.579 683.743 388.369 683.876 383.043C684.01 377.717 679.801 373.291 674.475 373.157C669.149 373.024 664.722 377.233 664.589 382.559C664.455 387.885 668.664 392.311 673.99 392.445Z"
      fill="#7087A7" />
    <path
      d="M699.994 393.098C705.32 393.232 709.747 389.022 709.88 383.696C710.014 378.37 705.805 373.944 700.479 373.81C695.152 373.676 690.726 377.886 690.593 383.212C690.459 388.538 694.668 392.964 699.994 393.098Z"
      fill="#7087A7" />
    <path
      d="M673.904 437.074C679.23 437.207 683.656 432.998 683.79 427.672C683.924 422.346 679.714 417.92 674.388 417.786C669.062 417.652 664.636 421.862 664.502 427.188C664.368 432.514 668.578 436.94 673.904 437.074Z"
      fill="#7087A7" />
    <path fill-rule="evenodd" clip-rule="evenodd"
      d="M708.875 331.667V358.5H698.667V366.167L684.375 358.5H672.125V331.667H708.875Z"
      fill="#7087A7" />
  </g>
  <path
    d="M538.589 377.125C538.589 377.125 439.089 389.125 448.589 377.125C452.029 372.785 452.979 359.925 452.789 345.275C452.729 340.825 452.569 336.215 452.339 331.625C451.239 309.625 448.589 288.125 448.589 288.125C448.589 288.125 535.589 247.125 525.589 279.625C521.589 292.755 522.899 311.195 525.939 328.505C526.829 333.555 527.859 338.505 528.939 343.205C531.575 354.669 534.796 365.99 538.589 377.125Z"
    fill="#FBBEBE" />
  <path
    d="M506.119 373.055C517.629 370.925 529.819 367.055 540.649 371.515C543.499 372.685 546.119 374.395 549.039 375.375C551.959 376.355 555.159 376.595 558.199 377.285C568.879 379.705 577.539 387.835 583.099 397.285C588.659 406.735 591.539 417.425 594.359 428.005L601.259 453.835C607.259 476.285 613.259 498.925 614.649 522.135C531.116 526.917 447.392 527.394 363.809 523.565C369.249 513.225 374.809 502.255 374.349 490.565C373.889 478.875 367.159 467.345 369.589 455.825C371.139 448.485 376.159 442.435 379.229 435.605C387.979 416.085 381.169 389.815 396.549 374.955C403.469 368.275 413.549 365.745 423.179 366.065C435.459 366.475 448.029 370.305 460.179 372.175C475.739 374.535 490.439 375.935 506.119 373.055Z"
    fill="#FF6584" />
  <path opacity="0.1"
    d="M637.019 484.225L636.919 485.655V485.755L636.749 488.055L635.419 506.565L633.809 528.865L633.349 535.145L632.349 548.585V548.755L525.349 549.755L349.759 551.655V552.495H349.619V551.375L350.069 537.015L350.929 508.955L351.669 485.165L351.739 482.795C351.783 481.365 352.118 479.958 352.723 478.661C353.329 477.365 354.192 476.205 355.261 475.253C356.33 474.301 357.581 473.577 358.939 473.126C360.297 472.674 361.733 472.503 363.159 472.625C367.879 473.025 374.009 473.515 381.339 474.035L384.339 474.255C426.669 477.195 504.899 480.995 583.839 476.255C585.499 476.165 587.169 476.065 588.839 475.945C601.079 475.175 613.309 474.185 625.419 472.945C626.95 472.785 628.497 472.962 629.952 473.464C631.407 473.966 632.735 474.782 633.84 475.852C634.946 476.923 635.804 478.223 636.353 479.661C636.902 481.099 637.13 482.64 637.019 484.175V484.225Z"
    fill="black" />
  <path
    d="M349.729 552.495V551.655L525.349 549.745L632.349 548.745H632.649V548.575L633.649 535.135L634.079 529.135L635.719 506.525L637.009 488.625V488.185C637.069 487.36 637.032 486.531 636.899 485.715C636.905 485.682 636.905 485.648 636.899 485.615C636.624 483.927 635.937 482.334 634.899 480.975C633.798 479.563 632.355 478.455 630.707 477.755C629.059 477.055 627.26 476.787 625.479 476.975C613.369 478.215 601.139 479.205 588.899 479.975C587.229 480.095 585.559 480.195 583.899 480.285C504.959 484.975 426.729 481.175 384.399 478.285L381.399 478.065C374.069 477.545 367.939 477.065 363.219 476.655C360.622 476.436 358.037 477.186 355.961 478.762C353.885 480.337 352.467 482.625 351.979 485.185C351.878 485.726 351.818 486.275 351.799 486.825L351.119 508.985L350.189 537.055L349.749 551.415V552.535L349.729 552.495Z"
    fill="#3F3D56" />
  <path opacity="0.1"
    d="M637.319 491.235L636.089 506.565L634.259 529.415L633.799 535.135L632.799 547.945L632.739 548.585V548.755L632.589 550.235L632.699 548.755H632.409L525.409 549.755L349.759 551.655V551.375L350.249 537.015L351.249 508.955L351.889 490.305C351.921 489.244 352.217 488.208 352.751 487.291C353.286 486.374 354.041 485.605 354.949 485.055C356.081 484.361 357.405 484.046 358.729 484.155C360.829 484.325 363.409 484.525 366.419 484.745C371.309 485.105 377.339 485.525 384.359 485.965C397.359 486.785 413.669 487.665 432.359 488.385C484.359 490.385 554.559 491.055 621.239 485.215C624.239 484.955 627.339 484.665 630.369 484.375C631.568 484.255 632.777 484.485 633.849 485.035C634.153 485.186 634.441 485.367 634.709 485.575C635.58 486.206 636.269 487.054 636.709 488.035C636.811 488.23 636.895 488.434 636.959 488.645C637.259 489.474 637.382 490.356 637.319 491.235Z"
    fill="black" />
  <path opacity="0.1"
    d="M298.089 504.925V508.115C298.09 509.275 297.761 510.411 297.141 511.392C296.522 512.373 295.637 513.157 294.589 513.655L254.489 514.425C253.423 513.936 252.519 513.151 251.887 512.164C251.254 511.176 250.918 510.028 250.919 508.855V505.855L298.089 504.925Z"
    fill="black" />
  <path d="M298.579 515.535L246.329 516.535V507.865L298.579 506.865V515.535Z" fill="#3F3D56" />
  <path opacity="0.1" d="M298.579 515.535L246.329 516.535V507.865L298.579 506.865V515.535Z"
    fill="black" />
  <path d="M300.579 515.535L248.329 516.535V507.865L300.579 506.865V515.535Z" fill="#3F3D56" />
  <path opacity="0.1"
    d="M679.209 506.925V510.115C679.208 511.275 679.537 512.411 680.157 513.392C680.776 514.373 681.661 515.157 682.709 515.655L722.809 516.425C723.875 515.936 724.779 515.151 725.411 514.164C726.044 513.176 726.38 512.028 726.379 510.855V507.855L679.209 506.925Z"
    fill="black" />
  <path opacity="0.1" d="M678.709 517.535L730.959 518.535V509.865L678.709 508.865V517.535Z"
    fill="black" />
  <path d="M676.709 517.535L728.959 518.535V509.865L676.709 508.865V517.535Z" fill="#3F3D56" />
  <path
    d="M454.779 313.845C454.859 320.845 451.619 327.445 448.869 333.915C438.856 357.483 434.52 383.074 436.209 408.625C436.939 419.625 438.789 430.625 436.939 441.525C435.089 452.425 428.509 463.295 417.939 466.425C435.469 476.875 459.199 475.775 475.699 463.765C484.489 457.365 491.039 448.435 497.449 439.655C496.688 455.427 492.121 470.781 484.139 484.405C498.567 483.127 512.566 478.834 525.229 471.802C537.892 464.77 548.937 455.157 557.649 443.585C561.959 437.775 565.709 431.395 567.369 424.355C570.459 411.355 566.149 397.845 562.859 384.855C560.11 373.996 558.049 362.974 556.689 351.855C556.259 348.295 555.909 344.635 556.789 341.155C557.789 337.085 560.459 333.645 562.429 329.935C568.029 319.395 568.159 306.635 565.289 295.055C562.419 283.475 556.799 272.795 551.229 262.245C546.769 253.785 541.929 244.935 533.769 239.965C528.669 236.865 522.769 235.575 516.889 234.325L491.519 228.895C485.969 227.705 480.259 226.515 474.649 227.385C465.179 228.865 458.509 235.705 452.649 242.725C448.059 248.185 436.839 258.435 436.049 265.585C435.329 272.175 441.149 283.215 442.139 290.165C443.439 299.165 444.359 296.165 449.439 301.685C452.649 305.105 454.719 309.055 454.779 313.845Z"
    fill="#3F3D56" />
  <path fill-rule="evenodd" clip-rule="evenodd"
    d="M245.953 426.928C246.422 427.713 246.888 428.417 247.33 429.04C242.913 428.27 238.999 425.945 236.208 422.626C237.892 421.567 240.061 420.448 242.691 419.578C243.593 422.513 244.784 424.972 245.953 426.928ZM249.173 425.005C248.157 423.305 247.118 421.172 246.321 418.623C247.757 418.338 249.295 418.139 250.933 418.059C252.57 417.979 254.12 418.028 255.577 418.172C255.031 420.786 254.204 423.011 253.359 424.801C252.681 426.236 251.992 427.389 251.428 428.236C250.785 427.448 249.987 426.367 249.173 425.005ZM244.949 410.841C245.02 412.3 245.186 413.679 245.423 414.978C247.079 414.641 248.856 414.405 250.75 414.313C252.645 414.221 254.436 414.282 256.117 414.457C256.226 413.141 256.257 411.753 256.186 410.294C256.115 408.836 255.949 407.456 255.713 406.157C254.057 406.495 252.28 406.73 250.386 406.822C248.491 406.914 246.7 406.853 245.018 406.678C244.909 407.994 244.878 409.383 244.949 410.841ZM241.306 406.085C241.164 407.641 241.119 409.289 241.204 411.024C241.288 412.758 241.492 414.394 241.785 415.929C238.647 416.938 236.072 418.27 234.092 419.527C232.783 417.124 231.982 414.396 231.84 411.48C231.698 408.563 232.23 405.77 233.299 403.251C235.392 404.31 238.084 405.386 241.306 406.085ZM245.558 402.963C247.015 403.108 248.565 403.156 250.203 403.077C251.841 402.997 253.379 402.798 254.815 402.513C254.017 399.964 252.978 397.83 251.963 396.131C251.148 394.768 250.351 393.687 249.707 392.899C249.144 393.746 248.455 394.899 247.777 396.334C246.931 398.125 246.104 400.349 245.558 402.963ZM259.35 405.206C259.643 406.742 259.847 408.378 259.932 410.112C260.016 411.846 259.972 413.494 259.829 415.05C263.051 415.749 265.743 416.825 267.836 417.884C268.905 415.365 269.437 412.572 269.295 409.656C269.153 406.739 268.352 404.011 267.043 401.608C265.063 402.865 262.489 404.198 259.35 405.206ZM264.927 398.509C263.243 399.569 261.075 400.688 258.445 401.557C257.542 398.622 256.351 396.164 255.182 394.207C254.713 393.423 254.247 392.718 253.805 392.095C258.222 392.865 262.136 395.19 264.927 398.509ZM241.853 402.365C239.151 401.755 236.884 400.852 235.104 399.961C237.56 396.387 241.23 393.692 245.551 392.497C245.171 393.16 244.776 393.906 244.386 394.733C243.412 396.794 242.466 399.356 241.853 402.365ZM259.283 418.77C258.67 421.779 257.723 424.342 256.75 426.402C256.359 427.229 255.964 427.975 255.584 428.638C259.906 427.443 263.575 424.748 266.031 421.174C264.252 420.283 261.985 419.38 259.283 418.77ZM251.662 433.041C264.074 432.437 273.645 421.885 273.041 409.473C272.437 397.062 261.885 387.49 249.473 388.094C237.062 388.699 227.49 399.25 228.094 411.662C228.699 424.074 239.25 433.645 251.662 433.041Z"
    fill="#A5D3FD" fill-opacity="0.51" />
  <path fill-rule="evenodd" clip-rule="evenodd"
    d="M315.223 461.959C315.636 462.774 316.052 463.509 316.451 464.161C312.097 463.088 308.353 460.498 305.798 456.994C307.551 456.053 309.792 455.087 312.476 454.402C313.173 457.392 314.192 459.927 315.223 461.959ZM318.567 460.263C317.672 458.497 316.783 456.297 316.163 453.699C317.616 453.514 319.164 453.422 320.803 453.455C322.442 453.489 323.985 453.645 325.429 453.889C324.703 456.46 323.725 458.621 322.757 460.349C321.982 461.734 321.215 462.837 320.594 463.642C320.007 462.812 319.285 461.679 318.567 460.263ZM315.333 445.841C315.303 447.301 315.373 448.689 315.519 450.001C317.195 449.779 318.984 449.667 320.88 449.706C322.776 449.745 324.559 449.93 326.224 450.22C326.424 448.916 326.551 447.532 326.581 446.072C326.611 444.612 326.541 443.225 326.394 441.913C324.719 442.135 322.93 442.246 321.034 442.208C319.138 442.169 317.355 441.984 315.69 441.693C315.49 442.998 315.363 444.381 315.333 445.841ZM312.027 440.845C311.777 442.387 311.619 444.028 311.584 445.764C311.548 447.501 311.639 449.147 311.825 450.698C308.624 451.488 305.964 452.639 303.901 453.756C302.761 451.269 302.151 448.492 302.211 445.572C302.271 442.653 302.995 439.903 304.235 437.464C306.25 438.665 308.861 439.925 312.027 440.845ZM316.485 438.024C317.928 438.269 319.471 438.425 321.111 438.458C322.75 438.492 324.298 438.4 325.75 438.215C325.131 435.617 324.242 433.416 323.346 431.651C322.628 430.235 321.907 429.102 321.32 428.271C320.699 429.077 319.932 430.18 319.156 431.565C318.189 433.292 317.21 435.454 316.485 438.024ZM330.089 441.215C330.275 442.767 330.365 444.413 330.33 446.149C330.294 447.885 330.136 449.526 329.887 451.069C333.052 451.989 335.663 453.248 337.678 454.449C338.919 452.01 339.643 449.26 339.703 446.341C339.763 443.422 339.152 440.645 338.012 438.157C335.95 439.275 333.29 440.426 330.089 441.215ZM336.115 434.92C334.362 435.86 332.121 436.826 329.438 437.512C328.74 434.522 327.722 431.987 326.691 429.954C326.277 429.139 325.861 428.404 325.463 427.752C329.816 428.825 333.56 431.416 336.115 434.92ZM312.829 437.171C310.176 436.376 307.977 435.319 306.264 434.307C308.96 430.911 312.807 428.477 317.201 427.583C316.776 428.218 316.331 428.935 315.884 429.733C314.771 431.721 313.649 434.212 312.829 437.171ZM329.084 454.742C328.265 457.702 327.143 460.192 326.03 462.181C325.583 462.978 325.137 463.696 324.712 464.331C329.106 463.437 332.953 461.002 335.65 457.606C333.937 456.594 331.738 455.537 329.084 454.742ZM320.495 468.452C332.919 468.707 343.197 458.842 343.452 446.418C343.707 433.994 333.842 423.716 321.418 423.461C308.994 423.207 298.716 433.071 298.461 445.495C298.207 457.919 308.071 468.197 320.495 468.452Z"
    fill="#A5D3FD" fill-opacity="0.51" />
  <path fill-rule="evenodd" clip-rule="evenodd"
    d="M294.54 426.27C295.083 427.005 295.615 427.661 296.116 428.238C291.644 427.902 287.523 425.969 284.421 422.938C285.994 421.719 288.043 420.395 290.576 419.273C291.76 422.107 293.185 424.437 294.54 426.27ZM297.556 424.042C296.38 422.45 295.138 420.428 294.096 417.969C295.497 417.545 297.009 417.197 298.631 416.958C300.253 416.719 301.801 416.617 303.264 416.618C302.976 419.274 302.37 421.568 301.702 423.432C301.167 424.926 300.594 426.141 300.115 427.039C299.398 426.317 298.499 425.319 297.556 424.042ZM291.973 410.358C292.186 411.802 292.485 413.159 292.847 414.429C294.463 413.932 296.208 413.524 298.085 413.248C299.961 412.972 301.75 412.858 303.44 412.869C303.421 411.548 303.316 410.163 303.103 408.719C302.89 407.274 302.591 405.917 302.229 404.648C300.614 405.145 298.868 405.552 296.992 405.828C295.115 406.104 293.327 406.218 291.636 406.208C291.656 407.527 291.76 408.913 291.973 410.358ZM287.884 405.979C287.894 407.541 288.01 409.186 288.263 410.904C288.516 412.622 288.879 414.23 289.32 415.73C286.294 417.039 283.862 418.616 282.014 420.06C280.477 417.796 279.414 415.159 278.988 412.27C278.563 409.381 278.82 406.549 279.639 403.938C281.825 404.789 284.609 405.597 287.884 405.979ZM291.812 402.458C293.276 402.46 294.823 402.357 296.446 402.118C298.068 401.879 299.579 401.531 300.98 401.108C299.938 398.649 298.697 396.626 297.52 395.034C296.577 393.757 295.678 392.759 294.961 392.038C294.482 392.935 293.909 394.15 293.374 395.645C292.707 397.508 292.101 399.803 291.812 402.458ZM305.757 403.347C306.197 404.846 306.56 406.454 306.813 408.172C307.066 409.89 307.182 411.535 307.192 413.097C310.467 413.479 313.251 414.287 315.437 415.138C316.256 412.527 316.513 409.695 316.088 406.806C315.663 403.918 314.6 401.28 313.063 399.016C311.215 400.461 308.782 402.037 305.757 403.347ZM310.655 396.138C309.082 397.357 307.033 398.682 304.5 399.803C303.316 396.97 301.891 394.639 300.537 392.806C299.994 392.071 299.462 391.415 298.96 390.838C303.432 391.174 307.553 393.107 310.655 396.138ZM288.065 402.223C285.317 401.88 282.973 401.202 281.115 400.489C283.211 396.692 286.601 393.653 290.785 392.042C290.472 392.739 290.151 393.52 289.843 394.381C289.075 396.526 288.382 399.169 288.065 402.223ZM307.011 416.853C306.694 419.907 306.001 422.55 305.233 424.695C304.925 425.556 304.605 426.337 304.291 427.034C308.476 425.424 311.865 422.384 313.961 418.587C312.104 417.874 309.76 417.197 307.011 416.853ZM300.816 431.798C313.11 429.987 321.609 418.554 319.798 406.26C317.988 393.966 306.554 385.468 294.26 387.278C281.966 389.089 273.468 400.523 275.278 412.816C277.089 425.11 288.523 433.609 300.816 431.798Z"
    fill="#A5D3FD" fill-opacity="0.51" />
  <path fill-rule="evenodd" clip-rule="evenodd"
    d="M310.101 382.382C309.899 383.273 309.748 384.104 309.638 384.861C306.976 381.253 305.752 376.868 306.025 372.54C307.975 372.937 310.316 373.626 312.818 374.814C311.444 377.56 310.607 380.16 310.101 382.382ZM313.758 383.215C314.197 381.284 314.92 379.024 316.103 376.63C317.339 377.415 318.589 378.334 319.828 379.408C321.067 380.481 322.155 381.587 323.109 382.697C320.908 384.211 318.774 385.248 316.926 385.959C315.444 386.528 314.149 386.886 313.157 387.109C313.236 386.095 313.405 384.763 313.758 383.215ZM320.486 370.056C319.53 371.159 318.697 372.271 317.971 373.374C319.402 374.274 320.85 375.331 322.283 376.573C323.717 377.815 324.97 379.096 326.065 380.384C327.052 379.508 328.034 378.525 328.99 377.421C329.946 376.317 330.779 375.206 331.505 374.103C330.075 373.203 328.627 372.146 327.194 370.904C325.76 369.662 324.507 368.38 323.412 367.093C322.424 367.968 321.442 368.952 320.486 370.056ZM321.137 364.099C319.959 365.127 318.789 366.288 317.652 367.6C316.515 368.913 315.533 370.237 314.684 371.549C311.718 370.111 308.936 369.296 306.636 368.838C307.349 366.196 308.654 363.67 310.566 361.462C312.477 359.255 314.791 357.603 317.305 356.52C318.086 358.731 319.29 361.369 321.137 364.099ZM326.368 364.779C327.322 365.89 328.409 366.996 329.649 368.069C330.888 369.143 332.138 370.061 333.373 370.847C334.557 368.453 335.279 366.192 335.719 364.262C336.071 362.714 336.241 361.381 336.32 360.367C335.327 360.59 334.032 360.948 332.551 361.518C330.703 362.228 328.569 363.266 326.368 364.779ZM334.792 375.927C333.944 377.24 332.961 378.564 331.825 379.876C330.688 381.189 329.517 382.35 328.34 383.377C330.186 386.108 331.39 388.745 332.172 390.956C334.685 389.873 336.999 388.221 338.911 386.014C340.822 383.807 342.128 381.281 342.841 378.639C340.541 378.181 337.759 377.366 334.792 375.927ZM343.451 374.937C341.501 374.54 339.16 373.851 336.658 372.663C338.033 369.917 338.869 367.317 339.375 365.095C339.578 364.203 339.728 363.372 339.838 362.616C342.501 366.224 343.725 370.609 343.451 374.937ZM324.102 361.787C322.569 359.48 321.553 357.261 320.882 355.388C325.127 354.499 329.641 355.085 333.592 357.206C332.859 357.423 332.058 357.69 331.205 358.018C329.078 358.836 326.623 360.035 324.102 361.787ZM325.375 385.69C322.853 387.442 320.399 388.641 318.271 389.459C317.418 389.787 316.617 390.054 315.884 390.271C319.835 392.391 324.35 392.977 328.595 392.088C327.923 390.215 326.908 387.997 325.375 385.69ZM310.007 390.745C319.4 398.881 333.61 397.862 341.745 388.469C349.881 379.077 348.862 364.867 339.469 356.731C330.077 348.595 315.867 349.614 307.731 359.007C299.595 368.4 300.614 382.61 310.007 390.745Z"
    fill="#A5D3FD" fill-opacity="0.51" />
  <path fill-rule="evenodd" clip-rule="evenodd"
    d="M358.768 425.99C359.665 426.163 360.501 426.285 361.261 426.37C357.743 429.151 353.401 430.519 349.066 430.388C349.398 428.426 350.01 426.064 351.114 423.524C353.904 424.807 356.53 425.557 358.768 425.99ZM359.48 422.307C357.536 421.932 355.253 421.285 352.821 420.181C353.565 418.92 354.442 417.64 355.474 416.366C356.506 415.092 357.575 413.969 358.654 412.979C360.239 415.129 361.346 417.227 362.117 419.051C362.736 420.513 363.136 421.795 363.392 422.78C362.376 422.734 361.038 422.609 359.48 422.307ZM346.105 416.017C347.24 416.936 348.379 417.732 349.505 418.421C350.357 416.961 351.366 415.48 352.56 414.006C353.754 412.532 354.993 411.237 356.244 410.101C355.336 409.142 354.321 408.194 353.186 407.275C352.052 406.356 350.913 405.56 349.787 404.871C348.935 406.33 347.926 407.812 346.732 409.285C345.538 410.759 344.298 412.054 343.048 413.191C343.956 414.149 344.971 415.098 346.105 416.017ZM340.131 415.563C341.197 416.707 342.396 417.838 343.745 418.931C345.095 420.024 346.45 420.962 347.79 421.767C346.45 424.779 345.728 427.586 345.345 429.9C342.681 429.275 340.114 428.054 337.844 426.216C335.575 424.378 333.848 422.12 332.683 419.644C334.867 418.789 337.463 417.499 340.131 415.563ZM340.638 410.313C341.717 409.323 342.786 408.199 343.818 406.925C344.85 405.651 345.727 404.372 346.471 403.111C344.039 402.007 341.756 401.36 339.812 400.984C338.254 400.683 336.916 400.558 335.9 400.512C336.155 401.497 336.556 402.779 337.174 404.241C337.945 406.064 339.053 408.163 340.638 410.313ZM351.502 401.525C352.841 402.33 354.197 403.268 355.547 404.361C356.896 405.454 358.095 406.585 359.16 407.728C361.829 405.792 364.425 404.502 366.609 403.648C365.444 401.172 363.716 398.913 361.447 397.076C359.178 395.238 356.61 394.017 353.946 393.391C353.564 395.705 352.842 398.513 351.502 401.525ZM350.226 392.904C349.893 394.866 349.282 397.228 348.178 399.768C345.388 398.485 342.761 397.734 340.524 397.302C339.626 397.129 338.791 397.007 338.031 396.921C341.549 394.141 345.891 392.773 350.226 392.904ZM337.722 412.677C335.467 414.285 333.283 415.373 331.433 416.106C330.405 411.893 330.841 407.361 332.83 403.343C333.071 404.068 333.365 404.86 333.72 405.702C334.608 407.801 335.887 410.214 337.722 412.677ZM361.57 410.615C363.404 413.078 364.684 415.491 365.571 417.59C365.927 418.432 366.221 419.224 366.462 419.949C368.451 415.93 368.887 411.399 367.859 407.186C366.009 407.918 363.825 409.007 361.57 410.615ZM367.13 425.808C374.951 416.151 373.464 401.983 363.808 394.162C354.151 386.34 339.983 387.828 332.162 397.484C324.34 407.14 325.828 421.309 335.484 429.13C345.141 436.951 359.309 435.464 367.13 425.808Z"
    fill="#A5D3FD" fill-opacity="0.51" />
  <path fill-rule="evenodd" clip-rule="evenodd"
    d="M207.165 396.726C207.372 397.616 207.6 398.429 207.831 399.157C203.86 397.075 200.844 393.665 199.2 389.652C201.127 389.158 203.534 388.755 206.304 388.73C206.266 391.801 206.65 394.506 207.165 396.726ZM210.818 395.877C210.37 393.949 210.033 391.6 210.052 388.929C211.507 389.097 213.032 389.377 214.616 389.801C216.199 390.226 217.661 390.746 219.004 391.328C217.685 393.651 216.218 395.516 214.866 396.962C213.782 398.122 212.774 399.009 211.978 399.643C211.607 398.697 211.177 397.424 210.818 395.877ZM211.123 381.101C210.745 382.511 210.482 383.876 210.31 385.184C211.99 385.369 213.754 385.688 215.586 386.179C217.418 386.67 219.105 387.275 220.653 387.956C221.159 386.736 221.612 385.423 221.99 384.013C222.368 382.602 222.632 381.238 222.803 379.929C221.123 379.744 219.359 379.425 217.528 378.935C215.695 378.444 214.008 377.838 212.461 377.158C211.955 378.377 211.501 379.69 211.123 381.101ZM209.107 375.459C208.496 376.897 207.951 378.453 207.501 380.13C207.052 381.808 206.746 383.428 206.556 384.979C203.26 384.981 200.401 385.462 198.132 386.055C197.619 383.367 197.69 380.524 198.446 377.704C199.201 374.883 200.561 372.386 202.349 370.315C204.018 371.962 206.253 373.809 209.107 375.459ZM214.11 373.786C215.453 374.368 216.914 374.888 218.498 375.312C220.082 375.737 221.607 376.017 223.061 376.184C223.081 373.513 222.743 371.165 222.295 369.236C221.936 367.69 221.507 366.417 221.135 365.47C220.34 366.104 219.331 366.992 218.247 368.151C216.895 369.598 215.429 371.463 214.11 373.786ZM226.557 380.135C226.367 381.686 226.062 383.306 225.612 384.983C225.163 386.661 224.617 388.216 224.006 389.654C226.86 391.304 229.095 393.151 230.764 394.799C232.552 392.727 233.912 390.23 234.668 387.41C235.424 384.589 235.494 381.747 234.982 379.059C232.713 379.651 229.854 380.133 226.557 380.135ZM233.914 375.462C231.986 375.956 229.58 376.359 226.81 376.383C226.847 373.313 226.464 370.608 225.948 368.388C225.742 367.498 225.513 366.685 225.282 365.956C229.253 368.039 232.27 371.448 233.914 375.462ZM210.764 372.084C208.378 370.678 206.495 369.126 205.073 367.734C208.503 365.08 212.82 363.636 217.3 363.817C216.736 364.333 216.132 364.923 215.508 365.59C213.951 367.255 212.267 369.406 210.764 372.084ZM222.35 393.03C220.846 395.708 219.162 397.858 217.606 399.523C216.982 400.191 216.377 400.781 215.813 401.296C220.293 401.478 224.61 400.033 228.041 397.38C226.619 395.988 224.736 394.436 222.35 393.03ZM210.733 404.29C222.736 407.506 235.074 400.383 238.29 388.38C241.506 376.377 234.383 364.04 222.38 360.823C210.377 357.607 198.04 364.73 194.823 376.733C191.607 388.736 198.73 401.074 210.733 404.29Z"
    fill="#A5D3FD" fill-opacity="0.51" />
  <path fill-rule="evenodd" clip-rule="evenodd"
    d="M284.055 384.926C284.965 385.01 285.808 385.049 286.573 385.059C283.347 388.174 279.162 389.965 274.836 390.264C274.972 388.279 275.347 385.868 276.194 383.231C279.097 384.232 281.785 384.718 284.055 384.926ZM284.398 381.192C282.427 381.011 280.091 380.593 277.561 379.735C278.177 378.407 278.923 377.047 279.824 375.677C280.724 374.307 281.677 373.083 282.652 371.991C284.443 373.973 285.753 375.952 286.7 377.69C287.46 379.084 287.986 380.32 288.338 381.274C287.322 381.33 285.979 381.337 284.398 381.192ZM270.467 376.257C271.687 377.059 272.899 377.738 274.087 378.312C274.791 376.776 275.648 375.202 276.69 373.617C277.732 372.032 278.837 370.621 279.969 369.366C278.971 368.502 277.867 367.659 276.647 366.857C275.427 366.054 274.215 365.375 273.026 364.801C272.322 366.338 271.465 367.912 270.423 369.496C269.381 371.081 268.276 372.492 267.144 373.748C268.142 374.611 269.246 375.455 270.467 376.257ZM264.477 376.397C265.65 377.429 266.956 378.436 268.407 379.39C269.858 380.344 271.3 381.144 272.712 381.812C271.678 384.942 271.236 387.807 271.085 390.147C268.372 389.789 265.696 388.828 263.256 387.224C260.816 385.62 258.874 383.544 257.469 381.195C259.558 380.129 262.013 378.588 264.477 376.397ZM264.461 371.122C265.436 370.03 266.389 368.807 267.29 367.436C268.191 366.066 268.936 364.707 269.552 363.379C267.023 362.521 264.687 362.102 262.716 361.921C261.135 361.776 259.791 361.784 258.776 361.839C259.128 362.793 259.653 364.03 260.413 365.423C261.361 367.162 262.671 369.14 264.461 371.122ZM274.401 361.302C275.814 361.97 277.256 362.769 278.707 363.723C280.158 364.677 281.463 365.684 282.637 366.716C285.1 364.526 287.555 362.985 289.645 361.918C288.24 359.57 286.297 357.493 283.857 355.889C281.417 354.285 278.741 353.325 276.028 352.966C275.877 355.307 275.436 358.172 274.401 361.302ZM272.278 352.849C272.141 354.835 271.767 357.246 270.92 359.883C268.016 358.882 265.328 358.396 263.059 358.187C262.149 358.104 261.305 358.064 260.541 358.055C263.766 354.94 267.951 353.148 272.278 352.849ZM261.794 373.763C259.709 375.587 257.643 376.886 255.875 377.798C254.434 373.708 254.42 369.156 256.001 364.96C256.313 365.657 256.683 366.416 257.121 367.219C258.212 369.22 259.724 371.495 261.794 373.763ZM285.32 369.35C287.389 371.619 288.902 373.894 289.993 375.895C290.43 376.697 290.8 377.456 291.112 378.154C292.693 373.958 292.679 369.405 291.238 365.315C289.47 366.227 287.405 367.527 285.32 369.35ZM292.357 383.917C299.184 373.534 296.301 359.583 285.917 352.756C275.534 345.929 261.583 348.813 254.756 359.196C247.929 369.58 250.813 383.531 261.196 390.357C271.58 397.184 285.531 394.301 292.357 383.917Z"
    fill="#A5D3FD" fill-opacity="0.51" />
  <path fill-rule="evenodd" clip-rule="evenodd"
    d="M249.659 356.531C250.569 356.614 251.413 356.654 252.177 356.663C248.952 359.778 244.767 361.57 240.44 361.869C240.577 359.884 240.951 357.473 241.799 354.835C244.702 355.836 247.39 356.322 249.659 356.531ZM250.002 352.797C248.031 352.616 245.695 352.197 243.166 351.34C243.782 350.011 244.527 348.651 245.428 347.281C246.329 345.911 247.282 344.688 248.257 343.596C250.047 345.578 251.357 347.556 252.305 349.295C253.065 350.688 253.59 351.925 253.942 352.879C252.927 352.934 251.583 352.942 250.002 352.797ZM236.071 347.861C237.291 348.664 238.503 349.343 239.692 349.917C240.396 348.38 241.253 346.806 242.295 345.221C243.337 343.636 244.442 342.225 245.574 340.97C244.575 340.107 243.472 339.263 242.251 338.461C241.031 337.659 239.819 336.98 238.631 336.405C237.927 337.942 237.07 339.516 236.028 341.101C234.986 342.686 233.881 344.097 232.749 345.352C233.747 346.216 234.851 347.059 236.071 347.861ZM230.081 348.002C231.255 349.034 232.56 350.041 234.011 350.995C235.462 351.949 236.904 352.748 238.317 353.416C237.282 356.546 236.841 359.411 236.69 361.752C233.977 361.393 231.301 360.433 228.861 358.829C226.421 357.224 224.478 355.148 223.073 352.8C225.162 351.733 227.618 350.193 230.081 348.002ZM230.066 342.727C231.041 341.635 231.994 340.411 232.894 339.041C233.795 337.671 234.541 336.311 235.157 334.983C232.627 334.125 230.292 333.707 228.32 333.526C226.739 333.381 225.396 333.388 224.38 333.444C224.732 334.398 225.258 335.634 226.018 337.028C226.965 338.766 228.275 340.745 230.066 342.727ZM240.006 332.906C241.419 333.575 242.861 334.374 244.311 335.328C245.762 336.282 247.068 337.289 248.241 338.321C250.704 336.13 253.16 334.589 255.249 333.522C253.844 331.174 251.901 329.098 249.462 327.494C247.022 325.89 244.346 324.929 241.633 324.57C241.482 326.911 241.041 329.776 240.006 332.906ZM237.882 324.454C237.746 326.439 237.372 328.85 236.524 331.487C233.621 330.486 230.933 330 228.663 329.791C227.753 329.708 226.91 329.669 226.145 329.659C229.371 326.544 233.556 324.753 237.882 324.454ZM227.398 345.368C225.313 347.191 223.248 348.491 221.48 349.403C220.039 345.312 220.025 340.76 221.606 336.564C221.918 337.262 222.288 338.021 222.725 338.823C223.816 340.824 225.329 343.099 227.398 345.368ZM250.924 340.954C252.994 343.223 254.506 345.498 255.597 347.499C256.035 348.302 256.405 349.061 256.717 349.758C258.298 345.562 258.283 341.01 256.843 336.919C255.075 337.832 253.01 339.131 250.924 340.954ZM257.962 355.522C264.789 345.138 261.905 331.187 251.522 324.36C241.138 317.534 227.187 320.417 220.361 330.801C213.534 341.184 216.417 355.135 226.801 361.962C237.184 368.789 251.135 365.905 257.962 355.522Z"
    fill="#A5D3FD" fill-opacity="0.51" />
  <path fill-rule="evenodd" clip-rule="evenodd"
    d="M224.813 464.679C225.444 465.341 226.053 465.926 226.622 466.435C222.144 466.659 217.814 465.255 214.359 462.633C215.768 461.229 217.636 459.659 220.009 458.231C221.537 460.894 223.241 463.029 224.813 464.679ZM227.529 462.093C226.163 460.659 224.679 458.808 223.339 456.498C224.677 455.903 226.133 455.369 227.713 454.93C229.292 454.491 230.815 454.196 232.268 454.015C232.312 456.686 231.996 459.038 231.567 460.97C231.222 462.52 230.804 463.797 230.441 464.747C229.64 464.12 228.623 463.242 227.529 462.093ZM220.284 449.21C220.675 450.617 221.141 451.926 221.659 453.141C223.2 452.446 224.881 451.825 226.708 451.317C228.536 450.809 230.296 450.473 231.975 450.273C231.791 448.966 231.515 447.604 231.123 446.197C230.732 444.791 230.267 443.482 229.749 442.267C228.208 442.961 226.527 443.583 224.7 444.091C222.872 444.599 221.112 444.934 219.433 445.135C219.617 446.442 219.893 447.803 220.284 449.21ZM215.681 445.375C215.886 446.924 216.206 448.542 216.671 450.215C217.136 451.888 217.697 453.438 218.321 454.871C215.482 456.547 213.265 458.414 211.611 460.078C209.804 458.023 208.421 455.539 207.639 452.725C206.857 449.912 206.76 447.07 207.247 444.378C209.522 444.949 212.385 445.404 215.681 445.375ZM219.14 441.392C220.593 441.212 222.116 440.917 223.696 440.478C225.275 440.039 226.731 439.505 228.069 438.91C226.729 436.6 225.245 434.748 223.879 433.315C222.784 432.166 221.768 431.287 220.966 430.661C220.603 431.611 220.186 432.888 219.841 434.437C219.411 436.37 219.096 438.722 219.14 441.392ZM233.087 440.537C233.711 441.97 234.271 443.52 234.736 445.193C235.202 446.866 235.522 448.483 235.726 450.033C239.023 450.004 241.886 450.459 244.161 451.03C244.648 448.337 244.551 445.496 243.769 442.682C242.987 439.869 241.604 437.385 239.797 435.33C238.143 436.993 235.926 438.861 233.087 440.537ZM237.049 432.775C235.64 434.18 233.772 435.749 231.399 437.177C229.871 434.514 228.167 432.379 226.595 430.729C225.964 430.067 225.355 429.482 224.786 428.972C229.264 428.749 233.594 430.153 237.049 432.775ZM215.394 441.626C212.624 441.628 210.214 441.247 208.282 440.771C209.888 436.743 212.873 433.305 216.824 431.186C216.6 431.916 216.379 432.731 216.181 433.623C215.686 435.848 215.328 438.556 215.394 441.626ZM236.014 453.781C236.08 456.852 235.722 459.56 235.227 461.785C235.029 462.677 234.808 463.492 234.584 464.222C238.535 462.103 241.52 458.665 243.126 454.637C241.194 454.16 238.784 453.78 236.014 453.781ZM231.73 469.382C243.702 466.054 250.71 453.651 247.382 441.678C244.054 429.706 231.651 422.698 219.678 426.026C207.706 429.354 200.698 441.757 204.026 453.73C207.354 465.702 219.757 472.71 231.73 469.382Z"
    fill="#A5D3FD" fill-opacity="0.51" />
  <defs>
    <clipPath id="clip0_2_560">
      <rect width="147" height="147" fill="white" transform="translate(628 330)" />
    </clipPath>
  </defs>
</svg>
  